<?xml version="1.0" encoding="utf-8"?>
<!-- Generator: Adobe Illustrator 26.0.2, SVG Export Plug-In . SVG Version: 6.00 Build 0)  -->
<svg version="1.1" id="Layer_1" xmlns="http://www.w3.org/2000/svg" xmlns:xlink="http://www.w3.org/1999/xlink" x="0px" y="0px"
	 viewBox="0 0 720.9 209.6" style="enable-background:new 0 0 720.9 209.6;" xml:space="preserve">
<style type="text/css">
	.st0{fill:#0A466F;}
	.st1{fill:#029F9D;}
</style>
<g>
	<path class="st0" d="M316.7,172.2c-8.7,8.7-15.4,14.5-20,17.6c-4.6,3.1-8.6,4.6-12.1,4.6c-4.3,0-7.7-2.1-10.2-6.3
		c-2.5-4.2-3.8-10.3-3.9-18.4c-5,8.1-10.4,14.2-16.2,18.4c-5.8,4.2-11.1,6.3-15.9,6.3c-5.1,0-9.7-2.4-13.6-7.3
		c-3.9-4.8-6-10.9-5.9-17.1c0-13.5,4.9-26,14.8-37.6c9.8-11.5,20.4-17.3,31.8-17.3c2.5-0.1,5.1,0.3,7.4,1.4c2.2,1.2,4.2,2.8,5.9,4.6
		l13-54.3c10.6-2.5,17.8-3.7,21.5-3.7c1.2,0,1.8,0.5,1.8,1.5c0,0.7-1.5,6.9-4.5,18.8c-12.1,47.5-18.2,76.2-18.2,86
		c-0.1,2,0.4,3.9,1.5,5.6c0.8,1.3,2.3,2.1,3.8,2.1c3.9,0,10.3-5,19.2-15.1V172.2z M250.9,177c5.9,0,11.5-5,16.6-15.1
		c5.1-10.1,7.7-19.5,7.7-28.3c0-3.6-0.8-6.4-2.4-8.5c-1.5-2-3.8-3.2-6.3-3.2c-5.6,0-11.1,5.3-16.4,15.8s-7.9,20-7.9,28.5
		c-0.2,2.8,0.7,5.6,2.3,7.9C246.2,176.1,248.5,177.1,250.9,177L250.9,177z"/>
	<path class="st0" d="M413.6,172.2c-8,7.6-14.7,13.2-20.1,16.8s-10.2,5.4-14.5,5.4c-4.4,0.2-8.6-2-11-5.7c-2.5-3.8-3.8-9-3.8-15.5
		c-6.7,7.3-12.6,12.7-17.9,16.2c-5.3,3.5-10.4,5.2-15.5,5.2c-4.4,0.1-8.6-2-11.1-5.7c-2.8-3.8-4.2-9-4.2-15.5
		c0-12.6,4.2-30.4,12.7-53.3l24.3-4.8c-10,29.1-15,47.7-15,55.9c0,5.8,2.2,8.7,6.5,8.7c3.1,0,7.1-2.6,11.7-7.7s7.6-9.6,8.7-13.4
		l11.9-38.7l24.7-5c-5.7,18.2-9.6,31-11.8,38.4c-2.1,7.4-3.2,12.6-3.2,15.5c0,5.7,1.9,8.6,5.8,8.6c3.2,0,7.8-2.9,14-8.6l7.6-7.2
		L413.6,172.2z"/>
	<path class="st0" d="M468.4,143.5l-4.3,9.9c-2.1,5-3.8,8-5.2,9c-1.3,1.1-3.9,1.6-7.8,1.6l-20.1-0.7c-2.6-0.1-5.2,0.8-7.3,2.4
		c-0.7,0.5-1.4,0.8-2.3,0.9c-1.8,0-2.4-0.7-1.8-2l5-11.7c1.3-3,2.6-5,4-5.9s4.5-1.4,9.3-1.4h15c5.5,0,8.9-0.6,10.4-1.8
		c1.5-1.2,2.5-1.8,3.1-1.8C468.3,141.9,468.9,142.4,468.4,143.5z"/>
	<path class="st0" d="M526.8,172.2c-7.6,7.6-14.2,13.2-19.8,16.8c-5.6,3.6-10.9,5.4-15.9,5.4c-5.1,0.1-9.8-2.4-12.7-6.6
		c-3.2-4.4-4.9-10.2-4.9-17.3c0-6.3,1.6-14.6,4.7-25l3.9-13.8l-7,0.4l2.9-14.3l8.7-0.4l8.5-28.3l24.3-5l-9.4,31.6l12.8-0.7l-3,14
		l-14.1,1.1l-6,20.4c-2.1,7.1-3.2,12.7-3.2,16.9c-0.1,2.5,0.6,5,2.1,6.9c1.3,1.7,3.3,2.7,5.5,2.7c3.3-0.1,6.5-1.1,9.2-3
		c3-2,7.5-6.1,13.4-12.3L526.8,172.2z"/>
	<path class="st0" d="M571.4,172.2c-14.2,14.9-24.8,22.4-31.8,22.4c-3.9,0-7.2-2-9.8-6s-4-9-4-15c0-12.9,4.4-30.8,13.1-53.6
		l23.1-4.8h1.1l-9.1,28.4c-3.8,11.8-5.6,20.2-5.6,25.2c-0.1,1.7,0.4,3.4,1.3,4.9c0.7,1.1,2,1.8,3.3,1.9c2.6-0.1,5.1-1,7.1-2.6
		c2.4-1.7,6.2-5.5,11.3-11.2L571.4,172.2z M569.6,79.7c0,14.6-5.4,21.8-16.1,21.8c-4.9,0.1-9.6-1.6-13.4-4.7
		c3.6-5.6,6.4-11.6,8.2-18c4.8,3,8.6,4.5,11.5,4.4C563.4,83.1,566.8,81.9,569.6,79.7L569.6,79.7z"/>
	<path class="st0" d="M653,172.2c-2.5,2.2-5.3,4-8.5,5.2c-2.1,0.9-4.4,1.4-6.6,1.6c-4.4,0-8.8-1.7-13.1-5.1
		c-10.8,13.7-22.2,20.5-34.3,20.5c-6.3,0-11.2-2.2-14.8-6.5s-5.3-10.4-5.3-18.1c0-8.6,2.1-19,6.4-31.4l6.4-18.6l24.6-4.6l-10.9,32.8
		c-1.3,4.2-2.4,8.4-3.3,12.7c-0.8,3.5-1.3,7-1.5,10.5c-0.1,3,0.8,5.9,2.6,8.2c1.4,2.1,3.8,3.3,6.3,3.3c5.8,0,12.1-5,18.8-14.9
		c-3-5.8-4.6-12.1-4.6-18.6c-0.1-8.3,2.3-16.5,6.9-23.4c4.6-7,9.6-10.5,15-10.5c4.1,0,6.2,3.2,6.2,9.6c0,12.3-5,26.5-14.9,42.6
		c3.1,2.8,6.3,4.3,9.7,4.3c4.1,0,9.1-3.3,14.9-9.9L653,172.2z"/>
	<path class="st0" d="M720.9,172.2c-7.7,7.6-14.6,13.2-20.7,16.8c-6.1,3.6-13.1,5.5-20.3,5.4c-8.2,0-14.9-2.6-20-7.9
		c-5.1-5.3-7.6-12.2-7.6-20.8c0-12.9,4.5-24.5,13.4-34.9c8.9-10.4,18.8-15.6,29.6-15.6c5.6,0,10.2,1.5,13.5,4.4
		c3.4,2.8,5.2,7.1,5.1,11.5c0,12.5-13.3,22.7-40,30.5c2.4,11.8,8.8,17.7,19,17.7c4,0,8-1.1,11.5-3.2c3.6-2.2,9.1-6.9,16.5-14.3
		V172.2z M673.3,155.4c15.5-4.4,23.3-12.4,23.3-24.2c0-5.8-2.1-8.7-6.4-8.7c-4,0-7.8,3-11.5,9.1
		C675.1,137.7,673.3,145.7,673.3,155.4L673.3,155.4z"/>
	<path class="st1" d="M58.7,183.1c7.2,11,18.2,21,31.2,25c14.4,4.5,28.6-1.5,40.4-9.8c19.6-13.9,34.7-34,51.1-51.4
		c16.8-17.8,34.3-35.1,52.7-51.2c37.4-32.7,81.5-59.7,130.1-73.2c52-14.5,114.5,0.7,170.3,50.9c-3.1-3.1-41.4-79.1-150.4-73.1
		C334,3.1,289,32,250.6,62.7c-20.3,16.3-39.3,34.2-57.5,52.8c-16.4,16.8-31.4,35.3-48.4,51.5c-12.3,11.7-28.4,24.5-46.4,23.4
		c-12.7-0.7-23.7-8.2-31.7-17.6C47.3,150.3,38,131.7,0,130.3C0.5,130.4,25.7,132.6,58.7,183.1z"/>
	<path class="st0" d="M72,168.2c4.4,5.2,13.6,13.9,25.9,15c-4-4-6.2-10-6.7-18c32.6-4.8,49.9-14.6,51.9-29.3
		c0.9-5.1-0.6-10.4-4.1-14.3c-3.5-4-8.6-6.4-15.2-7.3c-12.7-1.8-25.2,2.7-37.3,13.4C75.8,137.2,69,148.3,66,161.1
		C67.9,163.4,69.9,165.8,72,168.2z M101.6,130.8c5.3-6.6,10.2-9.5,14.9-8.8c5,0.7,7,4.4,6,11.3c-1.9,13.8-12.3,22-31.2,24.6
		C92.9,146.3,96.3,137.3,101.6,130.8L101.6,130.8z"/>
</g>
</svg>
