<?xml version="1.0" standalone="no"?>
<!DOCTYPE svg PUBLIC "-//W3C//DTD SVG 1.1//EN" "http://www.w3.org/Graphics/SVG/1.1/DTD/svg11.dtd" >
<svg xmlns="http://www.w3.org/2000/svg">
<metadata>Generated by IcoMoon</metadata>
<defs>
<font id="ico-font" horiz-adv-x="1024">
<font-face units-per-em="1024" ascent="960" descent="-64" />
<missing-glyph horiz-adv-x="1024" />
<glyph unicode="&#x20;" horiz-adv-x="512" d="" />
<glyph unicode="&#xe900;" glyph-name="report" d="M778.24 453.12h-184.32c-40.96 0-76.8 35.84-76.8 76.8v184.32c0 35.84-15.36 71.68-46.080 92.16-25.6 20.48-61.44 30.72-97.28 20.48-225.28-56.32-368.64-286.72-312.32-517.12 40.96-158.72 168.96-286.72 332.8-317.44 220.16-40.96 440.32 97.28 496.64 317.44 10.24 35.84 0 71.68-20.48 97.28-20.48 30.72-56.32 46.080-92.16 46.080zM814.080 330.24c-46.080-189.44-235.52-302.080-424.96-256-184.32 46.080-296.96 235.52-250.88 424.96 30.72 128 128 225.28 256 256 10.24 0 20.48 0 30.72-10.24 10.24-5.12 15.36-20.48 15.36-30.72v-184.32c0-87.040 71.68-153.6 153.6-153.6h184.32c10.24 0 25.6-5.12 30.72-15.36s10.24-20.48 5.12-30.72v0zM967.68 632.32c-35.84 133.12-143.36 240.64-276.48 276.48-5.12 0-10.24 0-15.36 0-40.96 0-76.8-35.84-76.8-76.8 0 0 0 0 0 0v-184.32c0-66.56 51.2-117.76 117.76-117.76h184.32c40.96 0 76.8 35.84 76.8 76.8-5.12 10.24-5.12 15.36-10.24 25.6zM870.4 606.72h-158.72c-20.48 0-40.96 15.36-40.96 40.96v184.32c0 0 0 0 0 0v0c107.52-30.72 189.44-112.64 220.16-220.16h-20.48z" />
<glyph unicode="&#xe901;" glyph-name="mob" d="M936.96 263.68c46.080-46.080 46.080-122.88 0-168.96l-35.84-40.96c-312.32-296.96-1080.32 465.92-783.36 783.36l46.080 40.96c46.080 46.080 122.88 46.080 163.84 0 0 0 71.68-92.16 71.68-92.16 46.080-46.080 46.080-117.76 0-163.84l-40.96-61.44c51.2-122.88 143.36-215.040 266.24-266.24l56.32 46.080c46.080 46.080 117.76 46.080 163.84 0 0-5.12 92.16-76.8 92.16-76.8v0zM885.76 207.36c0 0-92.16 71.68-92.16 71.68-15.36 15.36-40.96 15.36-61.44 0 0 0-76.8-61.44-76.8-61.44-10.24-10.24-25.6-10.24-35.84-5.12-158.72 56.32-286.72 184.32-343.040 337.92-5.12 15.36-5.12 30.72 5.12 40.96 0 0 61.44 76.8 61.44 76.8 15.36 15.36 15.36 40.96 0 61.44 0 0-71.68 92.16-71.68 92.16-15.36 15.36-40.96 15.36-56.32 0l-46.080-40.96c-215.040-261.12 445.44-885.76 675.84-670.72l35.84 40.96c20.48 15.36 20.48 40.96 5.12 56.32z" />
<glyph unicode="&#xe902;" glyph-name="drag" d="M419.84 816.64c0-50.899-41.261-92.16-92.16-92.16s-92.16 41.261-92.16 92.16c0 50.899 41.261 92.16 92.16 92.16v0c50.782-0.289 91.871-41.378 92.16-92.132v-0.028zM327.68 540.16c-50.899 0-92.16-41.261-92.16-92.16s41.261-92.16 92.16-92.16c50.899 0 92.16 41.261 92.16 92.16v0c-0.289 50.782-41.378 91.871-92.132 92.16h-0.028zM327.68 171.52c-50.899 0-92.16-41.261-92.16-92.16s41.261-92.16 92.16-92.16c50.899 0 92.16 41.261 92.16 92.16v0c-0.289 50.782-41.378 91.871-92.132 92.16h-0.028zM696.32 724.48c50.899 0 92.16 41.261 92.16 92.16s-41.261 92.16-92.16 92.16c-50.899 0-92.16-41.261-92.16-92.16v0c0.289-50.782 41.378-91.871 92.132-92.16h0.028zM696.32 540.16c-50.899 0-92.16-41.261-92.16-92.16s41.261-92.16 92.16-92.16c50.899 0 92.16 41.261 92.16 92.16v0c-0.289 50.782-41.378 91.871-92.132 92.16h-0.028zM696.32 171.52c-50.899 0-92.16-41.261-92.16-92.16s41.261-92.16 92.16-92.16c50.899 0 92.16 41.261 92.16 92.16v0c-0.289 50.782-41.378 91.871-92.132 92.16h-0.028z" />
<glyph unicode="&#xe903;" glyph-name="price" d="M921.6 857.6c-32.378 33.098-77.496 53.62-127.407 53.62-10.336 0-20.467-0.88-30.321-2.57l1.056 0.15-243.712-38.4c-40.384-5.694-75.669-24.191-102.385-51.185l-0.015-0.015-325.12-327.68c-26.187-26.215-42.382-62.416-42.382-102.4s16.195-76.185 42.383-102.401l255.999-255.999c26.215-26.187 62.416-42.382 102.4-42.382s76.185 16.195 102.401 42.383l-0.001-0.001 325.632 326.144c27.103 26.67 45.626 61.987 51.095 101.475l0.105 0.925 41.472 240.128c1.658 9.141 2.606 19.662 2.606 30.404 0 50.070-20.593 95.329-53.772 127.771l-0.033 0.032zM901.12 712.704l-40.96-245.76c-3.799-23.807-14.823-44.55-30.718-60.414l-0.002-0.002-325.12-325.632c-13.39-12.455-31.403-20.099-51.2-20.099s-37.81 7.644-51.246 20.141l0.046-0.043-256 256c-13.032 13.136-21.086 31.227-21.086 51.2s8.054 38.064 21.091 51.205l-0.005-0.005 324.608 326.656c15.739 15.807 36.289 26.812 59.268 30.633l0.636 0.087 243.712 38.4c2.685 0.25 5.806 0.393 8.96 0.393s6.275-0.143 9.357-0.422l-0.397 0.029c59.789-0.579 108.033-49.181 108.033-109.051 0-0.182 0-0.363-0.001-0.545v0.028c0-4.096-0.512-9.728-1.024-14.848zM583.168 673.28c-19.614-19.638-31.744-46.755-31.744-76.704 0-59.947 48.597-108.544 108.544-108.544s108.544 48.597 108.544 108.544c0 29.95-12.13 57.067-31.745 76.705l0.001-0.001c-19.913 19.064-46.976 30.8-76.781 30.8-30.832 0-58.731-12.559-78.86-32.841l-0.007-0.007zM685.568 570.88v0c-6.51-6.641-15.574-10.757-25.6-10.757s-19.090 4.116-25.594 10.751l-0.006 0.006c-6.641 6.589-10.752 15.719-10.752 25.809 0 20.077 16.275 36.352 36.352 36.352s36.352-16.275 36.352-36.352c0-10.090-4.111-19.22-10.75-25.807l-0.002-0.002z" />
<glyph unicode="&#xe904;" glyph-name="teach" d="M460.8 565.76c0 92.16-76.8 168.96-168.96 168.96s-163.84-76.8-163.84-168.96c0-92.16 76.8-168.96 168.96-168.96 87.040 0 163.84 71.68 163.84 168.96v0zM199.68 565.76c0 51.2 40.96 92.16 92.16 92.16s92.16-40.96 92.16-92.16-40.96-97.28-92.16-97.28-92.16 40.96-92.16 97.28zM696.32 412.16c-10.24 15.36-25.6 25.6-40.96 20.48l-271.36-66.56c-15.36-5.12-30.72-5.12-46.080-5.12h-117.76c-81.92 0-148.48-66.56-148.48-148.48v0-184.32c0-20.48 15.36-35.84 35.84-35.84h373.76c20.48 0 35.84 15.36 35.84 35.84v107.52c0 10.24 5.12 25.6 15.36 30.72l133.12 92.16c51.2 30.72 66.56 102.4 30.72 153.6v0zM629.76 314.88l-133.12-92.16c-30.72-20.48-51.2-56.32-51.2-92.16v-71.68h-302.080v148.48c0 40.96 35.84 71.68 71.68 71.68h122.88c20.48 0 40.96 0 61.44 5.12l240.64 61.44c5.12-5.12 0-20.48-10.24-30.72v0zM537.6 734.72h261.12v-66.56h-261.12v66.56zM194.56 775.68h66.56v66.56h624.64v-691.2c0-20.48-15.36-30.72-30.72-30.72h-209.92v-66.56h209.92c56.32 0 97.28 46.080 97.28 97.28v0 757.76h-752.64z" />
<glyph unicode="&#xe905;" glyph-name="qbank" d="M885.76 642.56l-271.36 240.64c-15.36 15.36-35.84 25.6-61.44 25.6h-230.4c-46.080 0-87.040-40.96-87.040-87.040v-51.2l-25.6 5.12c-5.12 0-10.24 0-15.36 0-46.080 0-81.92-35.84-81.92-81.92v-491.52c0-46.080 35.84-81.92 81.92-81.92 0 0 0 0 5.12 0s10.24 0 10.24 0l30.72 5.12v-46.080c0-46.080 40.96-87.040 87.040-87.040h501.76c46.080 0 87.040 40.96 87.040 87.040v496.64c0 25.6-15.36 51.2-30.72 66.56zM609.28 637.44v153.6l168.96-153.6h-168.96zM609.28 565.76h230.4v-491.52c0-10.24-5.12-15.36-15.36-15.36h-501.76c-10.24 0-15.36 5.12-15.36 15.36v747.52c0 10.24 5.12 15.36 15.36 15.36h215.040v-199.68c0-40.96 35.84-71.68 71.68-71.68zM235.52 197.12l-40.96-5.12c0 0-5.12 0-5.12 0s-5.12 5.12-5.12 5.12v496.64c0 5.12 0 5.12 5.12 5.12 0 0 5.12 5.12 10.24 0l40.96-5.12v-496.64zM465.92 212.48h240.64c20.48 0 35.84-15.36 35.84-35.84s-15.36-35.84-35.84-35.84h-240.64c-20.48 0-35.84 15.36-35.84 35.84s15.36 35.84 35.84 35.84zM522.24 340.48c20.48 0 35.84-15.36 35.84-35.84s-15.36-35.84-35.84-35.84h-56.32c-20.48 0-35.84 15.36-35.84 35.84s15.36 35.84 35.84 35.84h56.32z" />
<glyph unicode="&#xe906;" glyph-name="filter" d="M936.96 908.8h-849.92c-20.48 0-35.84-15.36-35.84-35.84 0-102.4 40.96-194.56 117.76-261.12l158.72-138.24c25.6-25.6 40.96-61.44 40.96-97.28v-353.28c0-30.72 30.72-46.080 56.32-30.72l209.92 143.36c10.24 5.12 15.36 15.36 15.36 30.72v209.92c0 35.84 15.36 71.68 40.96 97.28l158.72 138.24c81.92 66.56 122.88 158.72 122.88 261.12 0 20.48-15.36 35.84-35.84 35.84zM808.96 663.040l-158.72-138.24c-40.96-35.84-66.56-92.16-66.56-148.48v-189.44l-143.36-97.28v281.6c0 56.32-25.6 112.64-66.56 148.48l-158.72 143.36c-51.2 46.080-81.92 107.52-92.16 174.080h773.12c-5.12-66.56-40.96-128-87.040-174.080z" />
<glyph unicode="&#xe907;" glyph-name="home" d="M947.2 509.44c0 0 0 0 0 0l-373.76 373.76c-15.36 15.36-40.96 25.6-61.44 25.6s-46.080-10.24-61.44-25.6l-373.76-373.76c0 0 0 0 0 0-30.72-30.72-30.72-87.040 0-117.76 15.36-15.36 35.84-25.6 56.32-25.6 0 0 0 0 5.12 0h15.36v-276.48c0-56.32 46.080-97.28 97.28-97.28h148.48c15.36 0 25.6 10.24 25.6 25.6v215.040c0 25.6 20.48 46.080 46.080 46.080h87.040c25.6 0 46.080-20.48 46.080-46.080v-215.040c0-15.36 10.24-25.6 25.6-25.6h148.48c56.32 0 97.28 46.080 97.28 97.28v276.48h15.36c20.48 0 46.080 10.24 61.44 25.6 30.72 30.72 30.72 81.92-5.12 117.76zM911.36 427.52c-5.12-5.12-15.36-10.24-20.48-10.24h-40.96c-15.36 0-25.6-10.24-25.6-25.6v-302.080c0-25.6-20.48-46.080-46.080-46.080h-117.76v189.44c0 56.32-46.080 97.28-97.28 97.28h-92.16c-56.32 0-97.28-46.080-97.28-97.28v-189.44h-122.88c-25.6 0-46.080 20.48-46.080 46.080v302.080c0 15.36-10.24 25.6-25.6 25.6h-40.96c0 0 0 0 0 0-10.24 0-15.36 5.12-20.48 10.24-15.36 10.24-15.36 30.72-5.12 40.96 0 0 0 0 0 0v0l373.76 373.76c10.24 10.24 15.36 10.24 25.6 10.24s15.36-5.12 20.48-10.24l373.76-373.76c0 0 0 0 0 0 15.36-10.24 15.36-30.72 5.12-40.96z" />
<glyph unicode="&#xe908;" glyph-name="assemt" d="M404.48 494.080c0-25.6-20.48-40.96-46.080-35.84l-138.24 35.84c-15.36 0-25.6 15.36-25.6 30.72 0 25.6 20.48 40.96 46.080 35.84l138.24-35.84c15.36 0 25.6-15.36 25.6-30.72zM404.48 202.24c0 15.36-10.24 30.72-25.6 35.84l-138.24 35.84c-20.48 5.12-46.080-10.24-46.080-35.84 0-15.36 10.24-30.72 25.6-35.84l138.24-35.84c25.6-5.12 46.080 15.36 46.080 35.84zM404.48 345.6c0 15.36-10.24 30.72-25.6 35.84l-138.24 35.84c-20.48 5.12-46.080-10.24-46.080-35.84 0-15.36 10.24-30.72 25.6-35.84l138.24-30.72c25.6-10.24 46.080 10.24 46.080 30.72zM901.12 622.080v-409.6c0-30.72-20.48-61.44-56.32-71.68l-296.96-76.8c-25.6-5.12-51.2-5.12-71.68 0l-296.96 76.8c-30.72 10.24-56.32 35.84-56.32 71.68v588.8c0 10.24 5.12 20.48 15.36 30.72 10.24 5.12 20.48 10.24 30.72 5.12l307.2-76.8v-593.92c0-20.48 15.36-35.84 35.84-35.84s35.84 15.36 35.84 35.84v588.8l307.2 76.8c10.24 5.12 20.48 0 30.72-5.12s15.36-15.36 15.36-30.72c0-20.48 15.36-35.84 35.84-35.84s35.84 20.48 35.84 40.96c0 35.84-15.36 66.56-40.96 87.040s-61.44 25.6-92.16 15.36l-327.68-81.92-327.68 81.92c-5.12 5.12-15.36 5.12-25.6 5.12-25.6 0-46.080-10.24-66.56-20.48-25.6-20.48-40.96-56.32-40.96-87.040v-593.92c0-66.56 46.080-122.88 107.52-138.24l296.96-76.8c35.84-10.24 71.68-10.24 107.52 0l296.96 76.8c61.44 15.36 107.52 71.68 107.52 138.24v409.6c0 20.48-15.36 35.84-35.84 35.84s-30.72-10.24-30.72-30.72zM337.92 652.8c0 15.36-10.24 30.72-25.6 35.84l-71.68 20.48c-25.6 5.12-46.080-10.24-46.080-35.84 0-15.36 10.24-30.72 25.6-35.84l71.68-20.48c25.6-5.12 46.080 15.36 46.080 35.84z" />
<glyph unicode="&#xe909;" glyph-name="bullet" d="M972.8 161.28c0-25.6-20.48-46.080-46.080-46.080h-614.4c-25.6 0-46.080 20.48-46.080 46.080s20.48 46.080 46.080 46.080h614.4c25.6 0 46.080-20.48 46.080-46.080zM926.72 494.080h-614.4c-25.6 0-46.080-20.48-46.080-46.080s20.48-46.080 46.080-46.080h614.4c25.6 0 46.080 20.48 46.080 46.080s-20.48 46.080-46.080 46.080zM312.32 688.64h614.4c25.6 0 46.080 20.48 46.080 46.080s-20.48 46.080-46.080 46.080h-614.4c-25.6 0-46.080-20.48-46.080-46.080s20.48-46.080 46.080-46.080zM112.64 796.16c-35.84 0-61.44-30.72-61.44-61.44 0-35.84 25.6-61.44 61.44-61.44s61.44 25.6 61.44 61.44c0 30.72-25.6 61.44-61.44 61.44zM112.64 509.44c-35.84 0-61.44-25.6-61.44-61.44s25.6-61.44 61.44-61.44 61.44 25.6 61.44 61.44-25.6 61.44-61.44 61.44zM112.64 222.72c-35.84 0-61.44-25.6-61.44-61.44s25.6-61.44 61.44-61.44 61.44 25.6 61.44 61.44c0 35.84-25.6 61.44-61.44 61.44z" />
<glyph unicode="&#xe90a;" glyph-name="clock" d="M512 908.8c-254.493 0-460.8-206.307-460.8-460.8s206.307-460.8 460.8-460.8c254.493 0 460.8 206.307 460.8 460.8v0c0 254.493-206.307 460.8-460.8 460.8v0zM512 57.856c-215.471 0-390.144 174.673-390.144 390.144s174.673 390.144 390.144 390.144c215.471 0 390.144-174.673 390.144-390.144v0c-0.291-215.353-174.79-389.853-390.116-390.144h-0.028zM700.416 294.4c-6.433-10.212-17.648-16.897-30.425-16.897-0.104 0-0.207 0-0.311 0.001h0.016c-6.575 0.011-12.748 1.717-18.11 4.705l0.19-0.097-173.568 102.4c-10.496 6.373-17.402 17.739-17.408 30.719v223.745c2.209 17.868 17.297 31.564 35.584 31.564s33.375-13.696 35.566-31.389l0.018-0.174v-204.8l153.6-93.184c10.999-6.261 18.296-17.904 18.296-31.253 0-5.573-1.272-10.849-3.542-15.554l0.093 0.214z" />
<glyph unicode="&#xe90b;" glyph-name="del" d="M873.472 561.664c0-3.072-25.088-311.808-39.424-441.344-2.504-74.1-63.175-133.218-137.654-133.218-1.827 0-3.645 0.036-5.454 0.106l0.26-0.008h-179.2c-62.464 0-123.392 0-182.272 0-0.81-0.017-1.764-0.027-2.72-0.027-73.451 0-133.422 57.711-137.043 130.263l-0.013 0.324c-14.336 130.56-39.424 438.784-39.424 441.856-0.413 2.026-0.649 4.355-0.649 6.739 0 18.658 14.465 33.938 32.792 35.238l0.113 0.006c0.957 0.092 2.069 0.145 3.193 0.145 18.481 0 33.647-14.19 35.197-32.269l0.009-0.131c0-3.072 24.576-309.76 39.424-439.296-0.013-0.495-0.021-1.079-0.021-1.663 0-36.76 29.8-66.56 66.56-66.56 1.448 0 2.886 0.046 4.311 0.137l-0.194-0.010c113.152-2.56 233.984-2.56 358.4 0 2-0.212 4.321-0.332 6.67-0.332 37.043 0 67.072 30.029 67.072 67.072 0 0.477-0.005 0.953-0.015 1.427l0.001-0.071c14.336 128.512 39.424 436.224 39.424 439.296 1.559 18.21 16.726 32.401 35.207 32.401 1.124 0 2.236-0.053 3.334-0.155l-0.14 0.011c18.289-1.474 32.572-16.679 32.572-35.22 0-1.663-0.115-3.299-0.337-4.901l0.021 0.185zM937.472 712.704c0-19.511-15.817-35.328-35.328-35.328v0h-780.288c-17.868 2.209-31.564 17.297-31.564 35.584s13.696 33.375 31.389 35.566l0.174 0.018h150.528c0.069 0 0.151-0.001 0.233-0.001 19.339 0 35.468 13.746 39.148 32.001l0.043 0.256 11.264 55.808c10.451 41.644 47.478 72.022 91.629 72.192h194.579c0.016 0 0.034 0 0.053 0 43.474 0 80.070-29.447 90.93-69.484l0.153-0.66 11.776-57.856c3.723-18.51 19.852-32.257 39.191-32.257 0.082 0 0.164 0 0.246 0.001h150.515c0.001 0 0.002 0 0.004 0 19.511 0 35.328-15.817 35.328-35.328 0-0.18-0.001-0.36-0.004-0.539v0.027zM374.272 748.544h272.384c-2.268 5.239-4.212 11.408-5.525 17.808l-0.107 0.624-11.264 55.808c-3.085 9.009-11.48 15.37-21.36 15.37-0.231 0-0.46-0.003-0.689-0.010l0.034 0.001h-193.024c-0.055 0-0.121 0.001-0.187 0.001-10.724 0-19.738-7.327-22.306-17.249l-0.035-0.16-10.752-51.2c-1.209-7.882-3.172-14.948-5.863-21.643l0.231 0.651z" />
<glyph unicode="&#xe90c;" glyph-name="import" d="M926.72 355.84c-25.6 0-46.080-20.48-46.080-46.080v-184.32c0-25.6-20.48-46.080-46.080-46.080h-645.12c-25.6 0-46.080 20.48-46.080 46.080v184.32c0 25.6-20.48 46.080-46.080 46.080s-46.080-20.48-46.080-46.080v-184.32c0-76.8 61.44-138.24 138.24-138.24h645.12c76.8 0 138.24 61.44 138.24 138.24v184.32c0 25.6-20.48 46.080-46.080 46.080zM481.28 279.040c5.12-5.12 10.24-5.12 15.36-10.24 10.24-5.12 25.6-5.12 35.84 0 5.12 0 10.24 5.12 15.36 10.24l184.32 184.32c20.48 20.48 20.48 46.080 0 66.56s-46.080 20.48-66.56 0l-107.52-107.52v440.32c0 25.6-20.48 46.080-46.080 46.080s-46.080-20.48-46.080-46.080v-440.32l-107.52 102.4c-20.48 20.48-46.080 20.48-66.56 0s-20.48-46.080 0-66.56l189.44-179.2z" />
<glyph unicode="&#xe90d;" glyph-name="menu" d="M614.4 140.8h-512c-28.277 0-51.2 22.923-51.2 51.2v0 0c0 28.277 22.923 51.2 51.2 51.2v0h512c28.277 0 51.2-22.923 51.2-51.2v0 0c0-28.277-22.923-51.2-51.2-51.2v0zM921.6 396.8h-819.2c-28.277 0-51.2 22.923-51.2 51.2v0 0c0 28.277 22.923 51.2 51.2 51.2v0h819.2c28.277 0 51.2-22.923 51.2-51.2v0 0c0-28.277-22.923-51.2-51.2-51.2v0zM614.4 652.8h-512c-28.277 0-51.2 22.923-51.2 51.2v0 0c0 28.277 22.923 51.2 51.2 51.2v0h512c28.277 0 51.2-22.923 51.2-51.2v0 0c0-28.277-22.923-51.2-51.2-51.2v0z" />
<glyph unicode="&#xe90e;" glyph-name="chat" d="M916.48 350.72c-10.24 20.48-30.72 30.72-51.2 20.48s-30.72-30.72-20.48-51.2l46.080-112.64-133.12 56.32c-10.24 5.12-20.48 5.12-30.72 0-46.080-20.48-92.16-30.72-143.36-30.72-204.8 0-337.92 158.72-337.92 307.2 0 168.96 153.6 307.2 337.92 307.2s337.92-128 337.92-296.96c0-15.36 0-30.72-5.12-46.080-5.12-20.48 10.24-40.96 30.72-40.96 20.48-5.12 40.96 10.24 40.96 30.72 5.12 20.48 5.12 35.84 5.12 56.32 0 102.4-46.080 199.68-122.88 271.36s-184.32 112.64-291.84 112.64-209.92-40.96-286.72-112.64c-71.68-61.44-117.76-148.48-122.88-240.64-87.040-61.44-143.36-153.6-143.36-256 0-61.44 20.48-122.88 56.32-174.080l-56.32-138.24c-5.12-15.36 0-30.72 10.24-40.96 5.12-5.12 15.36-10.24 25.6-10.24 5.12 0 10.24 0 15.36 5.12l158.72 71.68c40.96-15.36 81.92-20.48 128-20.48 0 0 0 0 5.12 0 61.44 0 122.88 15.36 179.2 46.080 46.080 25.6 87.040 66.56 112.64 112.64 25.6 5.12 51.2 10.24 76.8 20.48l204.8-92.16c5.12 0 10.24-5.12 15.36-5.12 10.24 0 20.48 5.12 25.6 10.24 10.24 10.24 15.36 25.6 10.24 40.96l-76.8 199.68zM363.52 89.6c0 0 0 0 0 0-40.96 0-76.8 10.24-112.64 20.48-10.24 5.12-20.48 5.12-30.72 0l-87.040-40.96 30.72 71.68c5.12 15.36 5.12 25.6-5.12 40.96-35.84 40.96-56.32 92.16-56.32 143.36 0 61.44 25.6 117.76 71.68 163.84 15.36-76.8 51.2-148.48 112.64-204.8 71.68-71.68 168.96-112.64 276.48-117.76-51.2-46.080-122.88-76.8-199.68-76.8zM614.4 550.4c0-19.794-16.046-35.84-35.84-35.84s-35.84 16.046-35.84 35.84c0 19.794 16.046 35.84 35.84 35.84s35.84-16.046 35.84-35.84zM768 550.4c0-19.794-16.046-35.84-35.84-35.84s-35.84 16.046-35.84 35.84c0 19.794 16.046 35.84 35.84 35.84s35.84-16.046 35.84-35.84zM465.92 550.4c0-19.794-16.046-35.84-35.84-35.84s-35.84 16.046-35.84 35.84c0 19.794 16.046 35.84 35.84 35.84s35.84-16.046 35.84-35.84z" />
<glyph unicode="&#xe90f;" glyph-name="mark" d="M686.080 514.56c0 20.48-15.36 35.84-35.84 35.84h-373.76c-15.36 0-35.84-15.36-35.84-35.84s15.36-35.84 35.84-35.84h368.64c25.6 0 40.96 15.36 40.96 35.84zM276.48 407.040c-20.48 0-35.84-15.36-35.84-35.84s15.36-35.84 35.84-35.84h225.28c20.48 0 35.84 15.36 35.84 35.84s-15.36 35.84-35.84 35.84h-225.28zM363.52 58.88h-122.88c-40.96 0-71.68 30.72-71.68 71.68v634.88c0 40.96 35.84 71.68 71.68 71.68h440.32c40.96 0 71.68-30.72 71.68-71.68v-220.16c0-20.48 15.36-35.84 35.84-35.84s35.84 15.36 35.84 35.84v220.16c0 81.92-66.56 143.36-143.36 143.36h-440.32c-76.8 0-143.36-66.56-143.36-143.36v-634.88c0-81.92 66.56-143.36 143.36-143.36h122.88c20.48 0 35.84 15.36 35.84 35.84s-15.36 35.84-35.84 35.84zM890.88 386.56c-40.96 40.96-112.64 40.96-153.6 0l-194.56-194.56c-5.12-5.12-5.12-10.24-10.24-15.36l-40.96-143.36c-5.12-10.24 0-25.6 10.24-35.84 5.12-5.12 15.36-10.24 25.6-10.24 5.12 0 5.12 0 10.24 0l143.36 40.96c5.12 0 10.24 5.12 15.36 10.24l199.68 194.56c40.96 46.080 40.96 112.64-5.12 153.6zM650.24 94.72l-71.68-20.48 20.48 71.68 133.12 133.12 51.2-51.2-133.12-133.12zM844.8 284.16l-5.12-5.12-51.2 51.2 5.12 5.12c15.36 15.36 35.84 15.36 51.2 0 10.24-10.24 10.24-35.84 0-51.2zM650.24 693.76h-373.76c-20.48 0-35.84-15.36-35.84-35.84s15.36-35.84 35.84-35.84h368.64c20.48 0 35.84 15.36 35.84 35.84s-10.24 35.84-30.72 35.84z" />
<glyph unicode="&#xe910;" glyph-name="asmt" d="M762.88 253.44c0-20.48-15.36-35.84-35.84-35.84h-158.72c-20.48 0-35.84 15.36-35.84 35.84s15.36 35.84 35.84 35.84h158.72c20.48-5.12 35.84-20.48 35.84-35.84zM568.32 427.52h158.72c20.48 0 35.84 15.36 35.84 35.84s-15.36 35.84-35.84 35.84h-158.72c-20.48 0-35.84-15.36-35.84-35.84 5.12-20.48 20.48-35.84 35.84-35.84zM368.64 524.8l-35.84-46.080-5.12 15.36c-10.24 15.36-30.72 20.48-46.080 10.24-10.24 0-15.36-10.24-15.36-15.36s0-15.36 0-25.6l30.72-56.32c5.12-10.24 15.36-15.36 25.6-20.48 0 0 0 0 5.12 0 10.24 0 20.48 5.12 25.6 10.24l71.68 87.040c5.12 5.12 5.12 15.36 5.12 25.6s-5.12 15.36-10.24 20.48c-15.36 15.36-35.84 10.24-51.2-5.12zM399.36 309.76c0 10.24-5.12 15.36-15.36 20.48v0c-15.36 10.24-35.84 5.12-46.080-10.24l-10.24-10.24-10.24 10.24c-10.24 15.36-30.72 20.48-46.080 10.24-5.12-5.12-10.24-15.36-15.36-20.48 0-10.24 0-15.36 5.12-25.6l20.48-30.72-20.48-30.72c-10.24-15.36-5.12-35.84 10.24-46.080s35.84-5.12 46.080 10.24l10.24 10.24 10.24-10.24c5.12-10.24 15.36-15.36 25.6-15.36 5.12 0 15.36 0 20.48 5.12s10.24 15.36 15.36 20.48c0 10.24 0 15.36-5.12 25.6l-20.48 30.72 20.48 30.72c5.12 10.24 10.24 15.36 5.12 25.6zM798.72 816.64v5.12c0 46.080-40.96 87.040-87.040 87.040h-399.36c-46.080 0-87.040-40.96-87.040-87.040v-5.12c-56.32-20.48-97.28-71.68-97.28-133.12v-558.080c0-76.8 61.44-138.24 138.24-138.24h491.52c76.8 0 138.24 61.44 138.24 138.24v558.080c0 61.44-40.96 112.64-97.28 133.12zM829.44 683.52v-558.080c0-40.96-30.72-71.68-71.68-71.68h-491.52c-40.96 0-71.68 30.72-71.68 71.68v558.080c0 25.6 15.36 51.2 35.84 61.44 5.12-40.96 40.96-76.8 81.92-76.8h399.36c40.96 0 76.8 30.72 87.040 71.68 20.48-10.24 30.72-30.72 30.72-56.32zM732.16 755.2c0-10.24-10.24-20.48-20.48-20.48h-399.36c-10.24 0-20.48 10.24-20.48 20.48v66.56c0 10.24 10.24 20.48 20.48 20.48h399.36c10.24 0 20.48-10.24 20.48-20.48v-66.56z" />
<glyph unicode="&#xe911;" glyph-name="peer-eva" d="M921.6 186.88c-20.48-112.64-122.88-199.68-240.64-199.68-133.12 0-240.64 107.52-240.64 240.64s107.52 240.64 240.64 240.64c20.48 0 46.080-5.12 66.56-10.24s30.72-25.6 25.6-46.080c-5.12-20.48-25.6-30.72-46.080-25.6-15.36 5.12-30.72 5.12-46.080 5.12-92.16 0-168.96-76.8-168.96-168.96s76.8-168.96 168.96-168.96c81.92 0 153.6 56.32 168.96 138.24 5.12 20.48 20.48 30.72 40.96 30.72s35.84-15.36 30.72-35.84zM389.12 58.88h-143.36c-40.96 0-71.68 30.72-71.68 71.68v476.16h107.52c71.68 0 128 56.32 128 128 0 20.48-15.36 35.84-35.84 35.84s-40.96-20.48-40.96-40.96c0-30.72-25.6-56.32-56.32-56.32h-102.4c5.12 5.12 10.24 15.36 15.36 20.48l117.76 117.76c15.36 15.36 30.72 20.48 51.2 20.48h327.68c40.96 0 71.68-30.72 71.68-71.68v-189.44c0-20.48 15.36-35.84 35.84-35.84s35.84 15.36 35.84 35.84v194.56c5.12 76.8-61.44 143.36-143.36 143.36h-322.56c-35.84 0-71.68-15.36-102.4-40.96l-117.76-122.88c-25.6-25.6-40.96-61.44-40.96-97.28v-517.12c0-76.8 61.44-143.36 143.36-143.36h143.36c20.48 0 35.84 15.36 35.84 35.84s-15.36 35.84-35.84 35.84zM634.88 273.92c-15.36 15.36-35.84 15.36-51.2 0s-15.36-35.84 0-51.2l51.2-51.2c10.24-10.24 30.72-20.48 46.080-20.48s30.72 5.12 46.080 20.48l158.72 153.6c15.36 15.36 15.36 35.84 0 51.2s-35.84 15.36-51.2 0l-148.48-148.48-51.2 46.080z" />
<glyph unicode="&#xe912;" glyph-name="edit" d="M857.6 812.032l-74.752 58.88c-25.78 23.678-60.307 38.191-98.224 38.191-45.349 0-85.849-20.76-112.516-53.294l-0.204-0.257-83.456-106.496-361.984-460.8c-16.066-20.327-25.772-46.326-25.772-74.591 0-9.866 1.182-19.456 3.413-28.635l-0.17 0.826 38.912-167.424c4.123-18.005 20.005-31.235 38.977-31.235 0.157 0 0.314 0.001 0.471 0.003h171.496c37.777 0.409 71.307 18.239 92.989 45.822l0.195 0.258 446.464 568.32c18.941 24.252 30.371 55.173 30.371 88.763 0 50.778-26.12 95.456-65.657 121.33l-0.553 0.34zM384 84.992c-7.068-9.040-17.96-14.808-30.201-14.848h-139.783l-31.232 136.192c-0.771 2.855-1.214 6.132-1.214 9.513 0 9.033 3.161 17.327 8.437 23.838l337.352 430.009 194.048-153.6zM829.952 652.8l-58.88-73.728-194.048 153.6 58.368 73.728c12.055 13.465 29.49 21.899 48.896 21.899s36.841-8.434 48.841-21.837l0.055-0.062 74.752-58.88c20.274-11.406 33.744-32.784 33.744-57.308 0-13.999-4.389-26.973-11.867-37.621l0.139 0.209z" />
<glyph unicode="&#xe913;" glyph-name="copy" d="M864.768-12.8h-489.472c-59.664 0-108.032 48.368-108.032 108.032v0 489.472c-0.001 0.152-0.001 0.333-0.001 0.513 0 59.382 48.138 107.52 107.52 107.52 0.18 0 0.361 0 0.541-0.001h489.444c59.664 0 108.032-48.368 108.032-108.032v0-489.472c-0.289-59.548-48.484-107.743-108.004-108.032h-0.028zM375.296 621.056c-20.077 0-36.352-16.275-36.352-36.352v0-489.472c0-0.001 0-0.002 0-0.004 0-19.794 16.046-35.84 35.84-35.84 0.18 0 0.36 0.001 0.539 0.004h489.445c19.794 0 35.84 16.046 35.84 35.84v0 489.472c0.002 0.152 0.004 0.332 0.004 0.512 0 19.794-16.046 35.84-35.84 35.84-0.001 0-0.003 0-0.004 0v0zM195.072 274.944h-35.84c-0.001 0-0.002 0-0.004 0-19.794 0-35.84 16.046-35.84 35.84 0 0.18 0.001 0.36 0.004 0.539v-0.027 489.472c0 19.794 16.046 35.84 35.84 35.84v0h489.472c0.152 0.002 0.332 0.004 0.512 0.004 19.794 0 35.84-16.046 35.84-35.84 0-0.001 0-0.003 0-0.004v0-34.304h71.68v34.304c0 59.664-48.368 108.032-108.032 108.032v0h-489.472c-59.548-0.289-107.743-48.484-108.032-108.004v-489.5c0-59.664 48.368-108.032 108.032-108.032h35.84z" />
<glyph unicode="&#xe914;" glyph-name="bell" d="M890.88 222.72c-5.12 20.48-20.48 30.72-40.96 30.72-20.48-5.12-30.72-20.48-30.72-40.96 5.12-15.36-5.12-25.6-10.24-30.72s-15.36-15.36-25.6-15.36h-542.72c-15.36 0-25.6 10.24-25.6 15.36-10.24 5.12-15.36 15.36-10.24 25.6 10.24 56.32 30.72 92.16 51.2 122.88 25.6 40.96 51.2 87.040 51.2 153.6v56.32c0 112.64 92.16 204.8 204.8 209.92h5.12c112.64 0 204.8-97.28 204.8-209.92v-56.32c0-56.32 20.48-97.28 35.84-128 5.12-10.24 20.48-20.48 30.72-20.48 5.12 0 10.24 0 15.36 5.12 15.36 10.24 25.6 30.72 15.36 51.2-15.36 30.72-25.6 56.32-25.6 92.16v56.32c0 71.68-30.72 143.36-81.92 194.56-46.080 46.080-102.4 71.68-163.84 81.92v51.2c0 25.6-15.36 40.96-35.84 40.96s-35.84-15.36-35.84-35.84v-51.2c-138.24-20.48-245.76-138.24-245.76-281.6v-56.32c0-46.080-15.36-76.8-40.96-117.76-20.48-35.84-46.080-81.92-56.32-148.48-5.12-30.72 0-66.56 25.6-87.040 20.48-25.6 51.2-40.96 81.92-40.96h163.84c0-61.44 46.080-107.52 107.52-107.52s107.52 46.080 107.52 107.52h163.84c30.72 0 61.44 15.36 81.92 40.96 25.6 30.72 30.72 61.44 25.6 92.16zM512 58.88c-20.48 0-35.84 15.36-35.84 35.84h71.68c0-20.48-15.36-35.84-35.84-35.84z" />
<glyph unicode="&#xe915;" glyph-name="add" d="M926.72 488.96h-384v378.88c5.12 25.6-15.36 40.96-35.84 40.96s-40.96-15.36-40.96-40.96v-384h-378.88c-25.6 5.12-40.96-15.36-40.96-35.84s15.36-40.96 40.96-40.96h384v-384c0-20.48 15.36-40.96 40.96-40.96s40.96 15.36 40.96 40.96v384h384c20.48 0 40.96 15.36 40.96 40.96s-25.6 40.96-51.2 40.96z" />
<glyph unicode="&#xe916;" glyph-name="ar-dwn" d="M962.56 668.16c-15.36 15.36-35.84 15.36-51.2 0l-373.76-373.76c-15.36-15.36-35.84-15.36-51.2 0l-373.76 373.76c-15.36 15.36-35.84 15.36-51.2 0s-15.36-35.84 0-51.2l373.76-373.76c20.48-20.48 51.2-30.72 76.8-30.72s56.32 10.24 76.8 30.72l373.76 373.76c15.36 15.36 15.36 40.96 0 51.2z" />
<glyph unicode="&#xe917;" glyph-name="ar-up" d="M962.56 279.040l-373.76 373.76c-20.48 20.48-51.2 30.72-76.8 30.72s-56.32-10.24-76.8-30.72l-373.76-373.76c-15.36-15.36-15.36-35.84 0-51.2s35.84-15.36 51.2 0l373.76 373.76c15.36 15.36 35.84 15.36 51.2 0l373.76-373.76c15.36-15.36 35.84-15.36 51.2 0 15.36 10.24 15.36 35.84 0 51.2z" />
<glyph unicode="&#xe918;" glyph-name="dash" d="M317.44 908.8h-112.64c-87.040 0-153.6-66.56-153.6-153.6v-112.64c0-87.040 66.56-153.6 153.6-153.6h112.64c87.040 0 153.6 66.56 153.6 153.6v112.64c0 87.040-66.56 153.6-153.6 153.6zM394.24 642.56c0-40.96-30.72-76.8-71.68-76.8h-117.76c-40.96 0-76.8 35.84-76.8 76.8v112.64c0 40.96 35.84 76.8 76.8 76.8h112.64c40.96 0 76.8-35.84 76.8-76.8zM819.2 908.8h-112.64c-87.040 0-153.6-66.56-153.6-153.6v-112.64c0-87.040 66.56-153.6 153.6-153.6h112.64c87.040 0 153.6 66.56 153.6 153.6v112.64c0 87.040-66.56 153.6-153.6 153.6zM896 642.56c0-40.96-35.84-76.8-76.8-76.8h-112.64c-40.96 0-76.8 35.84-76.8 76.8v112.64c0 40.96 35.84 76.8 76.8 76.8h112.64c40.96 0 76.8-35.84 76.8-76.8v-112.64zM317.44 407.040h-112.64c-87.040 0-153.6-66.56-153.6-153.6v-112.64c0-87.040 66.56-153.6 153.6-153.6h112.64c87.040 0 153.6 66.56 153.6 153.6v112.64c0 87.040-66.56 153.6-153.6 153.6zM394.24 140.8c0-40.96-30.72-76.8-71.68-76.8h-117.76c-40.96 0-76.8 35.84-76.8 76.8v112.64c0 40.96 35.84 76.8 76.8 76.8h112.64c40.96 0 76.8-35.84 76.8-76.8zM819.2 407.040h-112.64c-87.040 0-153.6-66.56-153.6-153.6v-112.64c0-87.040 66.56-153.6 153.6-153.6h112.64c87.040 0 153.6 66.56 153.6 153.6v112.64c0 87.040-66.56 153.6-153.6 153.6zM896 140.8c0-40.96-35.84-76.8-76.8-76.8h-112.64c-40.96 0-76.8 35.84-76.8 76.8v112.64c0 40.96 35.84 76.8 76.8 76.8h112.64c40.96 0 76.8-35.84 76.8-76.8v-112.64z" />
<glyph unicode="&#xe919;" glyph-name="dash-cust" d="M322.56 883.2h-138.24c-71.68-5.12-133.12-61.44-133.12-138.24v-138.24c0-76.8 61.44-133.12 133.12-138.24h133.12c76.8 0 133.12 61.44 133.12 138.24v0 138.24c5.12 76.8-56.32 133.12-128 138.24zM389.12 606.72c0-35.84-30.72-66.56-66.56-66.56h-138.24c-35.84 0-66.56 30.72-66.56 66.56v138.24c0 35.84 30.72 66.56 66.56 66.56h133.12c35.84 0 66.56-30.72 66.56-66.56l5.12-138.24zM322.56 396.8h-138.24c-71.68 0-133.12-61.44-133.12-138.24v0-133.12c0-76.8 61.44-138.24 133.12-138.24h133.12c76.8 0 133.12 61.44 133.12 138.24v0 138.24c5.12 71.68-51.2 133.12-128 133.12v0zM389.12 125.44c0-35.84-30.72-66.56-66.56-66.56h-138.24c-35.84 0-66.56 30.72-66.56 66.56v133.12c0 35.84 30.72 66.56 66.56 66.56v0h133.12c35.84 0 66.56-30.72 66.56-66.56v0l5.12-133.12zM808.96 396.8h-133.12c-76.8 0-133.12-61.44-133.12-138.24v0-133.12c0-76.8 56.32-138.24 133.12-138.24v0h133.12c76.8 0 133.12 61.44 133.12 138.24v138.24c5.12 71.68-56.32 133.12-133.12 133.12v0zM875.52 125.44c0-35.84-30.72-66.56-66.56-66.56h-133.12c-35.84 0-66.56 30.72-66.56 66.56v133.12c0 35.84 30.72 66.56 66.56 66.56v0h133.12c35.84 0 66.56-30.72 66.56-66.56v0-133.12zM896 714.24h-112.64v112.64c0 20.48-15.36 40.96-40.96 40.96s-40.96-15.36-40.96-40.96v-107.52h-112.64c-20.48 0-40.96-15.36-40.96-40.96s15.36-40.96 40.96-40.96h112.64v-107.52c0-20.48 15.36-40.96 40.96-40.96s40.96 15.36 40.96 40.96v112.64h112.64c20.48 0 40.96 15.36 40.96 40.96s-20.48 30.72-40.96 30.72z" />
<glyph unicode="&#xe91a;" glyph-name="stu" d="M1018.88 591.36v0c-5.12 10.24-15.36 15.36-20.48 20.48l-471.040 220.16c-10.24 5.12-20.48 5.12-30.72 0l-476.16-225.28c-5.12 0-15.36-10.24-20.48-20.48 0-10.24 0-20.48 5.12-25.6v-5.12h5.12c5.12-5.12 10.24-10.24 15.36-15.36l168.96-76.8v-235.52c0-92.16 138.24-163.84 322.56-163.84s322.56 71.68 322.56 163.84v235.52l51.2 20.48v-163.84c0-20.48 15.36-35.84 35.84-35.84s40.96 15.36 40.96 35.84v199.68l40.96 20.48c10.24 5.12 15.36 10.24 20.48 20.48-5.12 10.24-5.12 20.48-10.24 30.72zM266.24 427.52l230.4-107.52c10.24-5.12 20.48-5.12 30.72 0l230.4 107.52v-199.68c0-30.72-87.040-87.040-245.76-87.040s-245.76 56.32-245.76 87.040v199.68zM890.88 576l-107.52-51.2c0 0-5.12 0-5.12 0l-266.24-128-384 179.2 384 174.080 378.88-174.080z" />
<glyph unicode="&#xe91b;" glyph-name="caln" d="M747.52 862.72h-10.24v10.24c0 20.48-15.36 35.84-35.84 35.84s-35.84-15.36-35.84-35.84v-10.24h-307.2v10.24c0 20.48-15.36 35.84-35.84 35.84s-35.84-15.36-35.84-35.84v-10.24h-10.24c-122.88 0-225.28-102.4-225.28-225.28v-424.96c0-122.88 102.4-225.28 225.28-225.28h471.040c122.88 0 225.28 102.4 225.28 225.28v424.96c0 122.88-102.4 225.28-225.28 225.28zM276.48 791.040h10.24v-61.44c0-20.48 15.36-35.84 35.84-35.84s35.84 20.48 35.84 35.84v61.44h307.2v-61.44c0-20.48 15.36-35.84 35.84-35.84s35.84 15.36 35.84 35.84v61.44h10.24c87.040 0 153.6-66.56 153.6-153.6v-10.24h-778.24v10.24c0 81.92 66.56 153.6 153.6 153.6zM747.52 58.88h-471.040c-87.040 0-153.6 66.56-153.6 153.6v343.040h778.24v-343.040c0-87.040-66.56-153.6-153.6-153.6zM747.52 401.92c0-25.6-20.48-46.080-46.080-46.080s-46.080 20.48-46.080 46.080 20.48 46.080 46.080 46.080 46.080-20.48 46.080-46.080zM558.080 401.92c0-25.6-20.48-46.080-46.080-46.080s-46.080 20.48-46.080 46.080 20.48 46.080 46.080 46.080 46.080-20.48 46.080-46.080zM368.64 401.92c0-25.6-20.48-46.080-46.080-46.080s-46.080 20.48-46.080 46.080 20.48 46.080 46.080 46.080 46.080-20.48 46.080-46.080zM558.080 212.48c0-25.6-20.48-46.080-46.080-46.080s-46.080 20.48-46.080 46.080 20.48 46.080 46.080 46.080 46.080-20.48 46.080-46.080zM368.64 212.48c0-25.6-20.48-46.080-46.080-46.080s-46.080 20.48-46.080 46.080 20.48 46.080 46.080 46.080 46.080-20.48 46.080-46.080z" />
<glyph unicode="&#xe91c;" glyph-name="bill" d="M250.88 642.56c0 20.48 15.36 35.84 35.84 35.84h240.64c20.48 0 35.84-15.36 35.84-35.84s-15.36-35.84-35.84-35.84h-240.64c-20.48 0-35.84 15.36-35.84 35.84zM286.72 442.88h240.64c20.48 0 35.84 15.36 35.84 35.84s-15.36 35.84-35.84 35.84h-240.64c-20.48 0-35.84-15.36-35.84-35.84 0-15.36 15.36-35.84 35.84-35.84zM286.72 279.040h240.64c20.48 0 35.84 15.36 35.84 35.84s-15.36 35.84-35.84 35.84h-240.64c-20.48 0-35.84-15.36-35.84-35.84s15.36-35.84 35.84-35.84zM936.96 785.92v-153.6c0-40.96-35.84-76.8-76.8-76.8h-92.16v-506.88c0-15.36-10.24-35.84-25.6-40.96-15.36-10.24-35.84-10.24-51.2 0l-112.64 66.56c0 0-5.12 0-5.12 0l-122.88-76.8c-5.12-10.24-15.36-10.24-20.48-10.24-10.24 0-15.36 0-25.6 5.12l-122.88 76.8c0 0-5.12 0-5.12 0l-112.64-66.56c-5.12-5.12-15.36-5.12-25.6-5.12-15.36 0-25.6 5.12-35.84 15.36s-15.36 20.48-15.36 35.84v737.28c0 66.56 56.32 122.88 122.88 122.88h599.040c71.68 0 128-56.32 128-122.88zM768 622.080h87.040c5.12 0 5.12 5.12 5.12 5.12v158.72c0 30.72-25.6 51.2-51.2 51.2-10.24 0-25.6-5.12-30.72-15.36-5.12-5.12-10.24-20.48-10.24-30.72v-168.96zM158.72 84.48l76.8 46.080c10.24 10.24 25.6 10.24 40.96 10.24s25.6-5.12 40.96-10.24l112.64-66.56 112.64 66.56c25.6 15.36 56.32 15.36 81.92 0l76.8-46.080v706.56c0 15.36 5.12 30.72 10.24 46.080h-501.76c-30.72 0-51.2-25.6-51.2-51.2v-701.44zM814.080 903.68v0 0 0z" />
<glyph unicode="&#xe91d;" glyph-name="loc" d="M791.040 792.576c-70.869 71.772-169.258 116.225-278.029 116.225-0.356 0-0.711 0-1.067-0.001h0.056c-0.001 0-0.002 0-0.003 0-216.627 0-392.34-175.174-393.213-391.597v-0.083c4.148-107.32 42.016-205.057 103.229-283.732l-0.829 1.108c66.561-90.308 145.895-166.548 236.252-227.74l3.364-2.148c13.336-10.856 30.533-17.432 49.267-17.432 0.68 0 1.358 0.009 2.033 0.026l-0.1-0.002c0.733-0.025 1.595-0.039 2.461-0.039 18.565 0 35.591 6.587 48.869 17.552l-0.13-0.104c64.852 42.34 121.214 89.104 171.747 141.527l0.285 0.297c96.706 94.548 159.798 223.122 169.882 366.326l0.102 1.802c0.002 0.412 0.002 0.9 0.002 1.388 0 107.956-43.619 205.725-114.194 276.643l0.015-0.015zM681.984 195.584c-47.488-49.302-100.16-93.028-157.312-130.482l-3.456-2.126-4.096-3.072c-1.352-1.214-3.15-1.956-5.12-1.956s-3.768 0.742-5.127 1.962l0.007-0.006-4.096 3.072c-88.549 58.059-163.479 128.427-224.68 209.715l-1.624 2.253c-51.244 66.076-83.277 149.325-86.507 239.911l-0.021 0.729c0 0 0 0 0 0 0 177.965 144.123 322.268 322.020 322.56h0.028c177.498-0.854 321.057-144.94 321.057-322.556 0-1.622-0.012-3.24-0.036-4.856l0.003 0.245c-11.261-124.664-66.942-234.536-150.877-315.236l-0.163-0.156zM512 659.968c-82.852 0-150.016-67.164-150.016-150.016s67.164-150.016 150.016-150.016c82.852 0 150.016 67.164 150.016 150.016v0c0 82.852-67.164 150.016-150.016 150.016v0zM512 431.104c-43.829 0.001-79.358 35.531-79.358 79.36s35.531 79.36 79.36 79.36c43.829 0 79.36-35.531 79.36-79.36 0-0.18-0.001-0.36-0.002-0.54v0.028c-0.29-43.609-35.709-78.848-79.358-78.848-0.001 0-0.001 0-0.002 0v0z" />
<glyph unicode="&#xe91e;" glyph-name="expand" d="M450.56 386.56c-15.36 15.36-46.080 15.36-61.44 0l-250.88-250.88v158.72c0 25.6-20.48 40.96-40.96 40.96 0 0 0 0 0 0-25.6 0-40.96-20.48-40.96-40.96v-261.12c0 0 0 0 0 0 0-5.12 0-10.24 5.12-15.36 0-5.12 5.12-10.24 10.24-15.36s10.24-5.12 15.36-10.24c0 0 0 0 5.12 0s10.24 0 10.24 0c0 0 0 0 0 0h261.12c25.6 0 40.96 20.48 40.96 40.96 0 25.6-20.48 40.96-40.96 40.96 0 0 0 0 0 0h-158.72l250.88 250.88c10.24 15.36 10.24 40.96-5.12 61.44zM967.68 883.2c0 5.12-5.12 10.24-10.24 15.36s-10.24 5.12-15.36 10.24c0 0-5.12 0-10.24 0h-261.12c-25.6 0-40.96-20.48-40.96-40.96 0-25.6 20.48-40.96 40.96-40.96h158.72l-250.88-250.88c-15.36-15.36-15.36-46.080 0-61.44 5.12-10.24 15.36-15.36 25.6-15.36s20.48 5.12 30.72 10.24l250.88 250.88v-158.72c0-25.6 20.48-40.96 40.96-40.96 0 0 0 0 0 0 25.6 0 40.96 20.48 40.96 40.96v261.12c0 0 0 0 0 0 5.12 10.24 5.12 15.36 0 20.48z" />
<glyph unicode="&#xe91f;" glyph-name="mini" d="M64 0c7.706-7.785 18.394-12.606 30.208-12.606s22.502 4.821 30.204 12.603l0.004 0.004 250.368 249.856v-156.672c0.285-23.637 19.371-42.723 42.981-43.008h0.027c23.637 0.285 42.723 19.371 43.008 42.981v260.635c0 0.038 0 0.083 0 0.128 0 5.851-1.128 11.438-3.178 16.556l0.106-0.3c-2.267 5.456-5.57 10.072-9.695 13.794l-0.033 0.030c-3.831 4.046-8.424 7.327-13.554 9.62l-0.27 0.108h-3.584c-3.752 1.72-8.117 2.827-12.712 3.068l-0.088 0.004h-260.608c-23.753 0-43.008-19.255-43.008-43.008s19.255-43.008 43.008-43.008h156.672l-249.856-250.368c-7.785-7.706-12.606-18.394-12.606-30.208s4.821-22.502 12.603-30.204l0.004-0.004zM566.272 527.36c2.284-5.547 5.395-10.301 9.236-14.357l-0.020 0.021c3.999-3.887 8.764-7.009 14.046-9.114l0.29-0.102c4.823-2.11 10.429-3.411 16.319-3.583l0.065-0.001h260.096c1.406-0.163 3.035-0.256 4.686-0.256 23.753 0 43.008 19.255 43.008 43.008s-19.255 43.008-43.008 43.008c-1.651 0-3.28-0.093-4.882-0.274l0.196 0.018h-156.672l250.368 249.344c7.969 7.812 12.909 18.689 12.909 30.72 0 23.753-19.255 43.008-43.008 43.008-0.038 0-0.076 0-0.115 0h0.006c-11.742-0.085-22.378-4.753-30.222-12.301l0.014 0.013-250.368-249.856v156.672c0.002 0.152 0.003 0.332 0.003 0.512 0 23.47-19.026 42.496-42.496 42.496-0.001 0-0.002 0-0.003 0v0c-0.001 0-0.002 0-0.003 0-23.573 0-42.716-18.965-43.005-42.469v-260.635c-0.009-0.335-0.015-0.73-0.015-1.125 0-5.29 0.944-10.359 2.672-15.048l-0.097 0.302z" />
<glyph unicode="&#xe920;" glyph-name="print" d="M891.392 519.68l-25.088 3.584v204.8c0.062 1.556 0.097 3.383 0.097 5.217 0 77.196-62.58 139.776-139.776 139.776-1.835 0-3.661-0.035-5.479-0.105l0.262 0.008c-139.776 0-279.040 0-418.816 0-1.556 0.062-3.383 0.097-5.217 0.097-77.196 0-139.776-62.58-139.776-139.776 0-1.835 0.035-3.661 0.105-5.479l-0.008 0.262c0-64 0-127.488 0-191.488v-14.848h-7.68c-54.764-2.26-98.304-47.205-98.304-102.318 0-0.029 0-0.058 0-0.086v0.004c0-97.28 0-194.048 0-291.328 0-56.554 45.846-102.4 102.4-102.4v0h716.288c56.554 0 102.4 45.846 102.4 102.4v0c0 97.792 0 196.096 0 294.4-1.426 47.904-35.541 87.444-80.735 97.159l-0.673 0.121zM233.984 730.112c-0.118 1.435-0.186 3.107-0.186 4.794 0 34.215 27.737 61.952 61.952 61.952 1.687 0 3.359-0.067 5.012-0.2l-0.218 0.014h420.352c1.96 0.216 4.232 0.34 6.534 0.34 34.781 0 62.976-28.195 62.976-62.976 0-2.465-0.142-4.897-0.417-7.287l0.027 0.292v-310.272h-555.52c0 4.096 0 7.68 0 11.776zM860.672 100.352h-698.368c-25.6 0-33.28 7.68-33.28 33.792v281.088c0 19.968 9.728 29.696 28.672 28.16 0-21.504 0-43.008 0-64-0.051-0.723-0.079-1.566-0.079-2.417 0-16.175 10.417-29.916 24.908-34.882l0.259-0.077c2.767-0.361 5.968-0.566 9.216-0.566s6.449 0.206 9.589 0.605l-0.373-0.039h620.544c30.208 0 44.544 13.824 44.544 44.032v57.856c1.492 0.336 3.205 0.529 4.964 0.529 11.566 0 21.185-8.337 23.175-19.329l0.022-0.144c0.128-1.761 0.201-3.816 0.201-5.888s-0.073-4.127-0.216-6.162l0.015 0.274v-279.040c0.512-26.112-7.168-33.792-33.792-33.792zM828.416 307.712h-70.656c-17.599-2.192-31.083-17.057-31.083-35.072s13.484-32.88 30.91-35.054l0.173-0.018h71.68c17.599 2.192 31.083 17.057 31.083 35.072s-13.484 32.88-30.91 35.054l-0.173 0.018zM375.296 659.456h273.408c1.275-0.163 2.749-0.256 4.245-0.256 19.511 0 35.328 15.817 35.328 35.328s-15.817 35.328-35.328 35.328c-1.496 0-2.971-0.093-4.418-0.274l0.173 0.018h-273.92c-1.275 0.163-2.749 0.256-4.245 0.256-19.511 0-35.328-15.817-35.328-35.328s15.817-35.328 35.328-35.328c1.496 0 2.971 0.093 4.418 0.274l-0.173-0.018zM373.248 483.328h276.48c0.766-0.059 1.659-0.093 2.56-0.093 19.511 0 35.328 15.817 35.328 35.328 0 0.033 0 0.065 0 0.098v-0.005c-0.237 19.612-16.191 35.42-35.838 35.42-0.902 0-1.796-0.033-2.681-0.099l0.118 0.007h-274.432c-19.511 0-35.328-15.817-35.328-35.328s15.817-35.328 35.328-35.328v0z" />
<glyph unicode="&#xe921;" glyph-name="search" d="M952.32 47.616l-137.728 137.216c67.906 75.79 109.421 176.451 109.421 286.808 0 237.809-192.783 430.592-430.592 430.592s-430.592-192.783-430.592-430.592c0-237.809 192.783-430.592 430.592-430.592 102.595 0 196.809 35.881 270.779 95.778l-0.808-0.633 139.264-138.752c6.487-6.289 15.327-10.184 25.077-10.24h0.011c0.064 0 0.14-0.001 0.216-0.001 19.511 0 35.328 15.817 35.328 35.328 0 9.809-3.998 18.685-10.453 25.086l-0.002 0.002zM133.12 475.648c0 200.201 162.295 362.496 362.496 362.496s362.496-162.295 362.496-362.496c0-200.201-162.295-362.496-362.496-362.496v0c-0.152 0-0.332 0-0.512 0-200.304 0-362.716 162.233-363.008 362.468v0.028z" />
<glyph unicode="&#xe922;" glyph-name="denied" d="M512 914.944c-257.886 0-466.944-209.058-466.944-466.944s209.058-466.944 466.944-466.944c257.886 0 466.944 209.058 466.944 466.944v0c-0.291 257.769-209.175 466.653-466.916 466.944h-0.028zM512 64.512c-211.795 0-383.488 171.693-383.488 383.488s171.693 383.488 383.488 383.488c211.795 0 383.488-171.693 383.488-383.488v0c-0.291-211.677-171.81-383.197-383.46-383.488h-0.028zM768 642.56l-450.56-450.56c-6.402-3.705-14.083-5.892-22.276-5.892-24.884 0-45.056 20.172-45.056 45.056 0 8.192 2.186 15.874 6.008 22.493l-0.116-0.218 450.56 450.56c6.402 3.705 14.083 5.892 22.276 5.892 24.884 0 45.056-20.172 45.056-45.056 0-8.192-2.186-15.874-6.008-22.493l0.116 0.218z" />
<glyph unicode="&#xe923;" glyph-name="more" d="M609.28 84.48c0-53.726-43.554-97.28-97.28-97.28s-97.28 43.554-97.28 97.28c0 53.726 43.554 97.28 97.28 97.28v0c53.726 0 97.28-43.554 97.28-97.28v0zM512 545.28c-53.726 0-97.28-43.554-97.28-97.28s43.554-97.28 97.28-97.28c53.726 0 97.28 43.554 97.28 97.28v0c0 53.726-43.554 97.28-97.28 97.28v0zM512 714.24c53.726 0 97.28 43.554 97.28 97.28s-43.554 97.28-97.28 97.28c-53.726 0-97.28-43.554-97.28-97.28v0c0-53.726 43.554-97.28 97.28-97.28v0z" />
<glyph unicode="&#xe924;" glyph-name="chklst" d="M343.040 832h-250.88c-20.48 0-40.96-15.36-40.96-40.96v-250.88c0-20.48 20.48-40.96 40.96-40.96h250.88c25.6 0 40.96 20.48 40.96 40.96v250.88c0 25.6-15.36 40.96-40.96 40.96zM302.080 581.12h-168.96v168.96h168.96v-168.96zM931.84 709.12h-419.84c-25.6 0-40.96-20.48-40.96-40.96 0-25.6 20.48-40.96 40.96-40.96 0 0 0 0 0 0h419.84c25.6 0 40.96 20.48 40.96 40.96s-20.48 40.96-40.96 40.96zM931.84 263.68h-419.84c-25.6 0-40.96-20.48-40.96-40.96 0-25.6 20.48-40.96 40.96-40.96h419.84c25.6 0 40.96 20.48 40.96 40.96s-20.48 40.96-40.96 40.96zM343.040 396.8h-250.88c-20.48 0-40.96-20.48-40.96-40.96v-250.88c0-25.6 20.48-40.96 40.96-40.96h250.88c25.6 0 40.96 20.48 40.96 40.96v250.88c0 20.48-15.36 40.96-40.96 40.96zM302.080 145.92h-168.96v168.96h168.96v-168.96z" />
<glyph unicode="&#xe925;" glyph-name="alert" d="M955.392 222.72l-330.752 579.072c-22.655 39.126-64.319 65.025-112.033 65.025-0.213 0-0.427-0.001-0.64-0.002h0.033c-0.18 0.001-0.394 0.001-0.607 0.001-47.713 0-89.378-25.899-111.702-64.406l-0.331-0.619-330.752-578.56c-10.819-18.518-17.207-40.769-17.207-64.512 0-71.47 57.881-129.422 129.324-129.536h662.539c71.329 0.28 129.043 58.168 129.043 129.535 0 23.536-6.277 45.606-17.248 64.627l0.333-0.626zM895.488 128.512c-10.452-17.873-29.389-29.788-51.141-30.207l-0.059-0.001h-663.552c-32.883 0.627-59.3 27.431-59.3 60.406 0 11.126 3.008 21.55 8.254 30.503l-0.154-0.285 331.264 578.56c10.452 17.873 29.389 29.788 51.141 30.207l0.059 0.001c21.841-0.312 40.821-12.264 51.046-29.92l0.154-0.288 330.752-578.56c5.578-8.978 8.885-19.871 8.885-31.538 0-10.586-2.723-20.537-7.506-29.189l0.158 0.311zM477.184 384.512v145.408c2.174 17.329 16.817 30.602 34.56 30.602s32.386-13.272 34.542-30.431l0.018-0.171v-142.848c-2.174-17.329-16.817-30.602-34.56-30.602s-32.386 13.272-34.542 30.431l-0.018 0.171zM558.080 243.2c-0.002-25.448-20.632-46.077-46.080-46.077s-46.080 20.631-46.080 46.080c0 25.269 20.34 45.788 45.541 46.077h0.027c0.152 0.002 0.332 0.003 0.512 0.003 25.449 0 46.080-20.631 46.080-46.080 0-0.001 0-0.002 0-0.003v0z" />
<glyph unicode="&#xe926;" glyph-name="info" d="M512 908.8c-254.493 0-460.8-206.307-460.8-460.8s206.307-460.8 460.8-460.8c254.493 0 460.8 206.307 460.8 460.8v0c0 254.493-206.307 460.8-460.8 460.8v0zM512 71.168c-208.119 0-376.832 168.713-376.832 376.832s168.713 376.832 376.832 376.832c208.119 0 376.832-168.713 376.832-376.832v0c-0.291-208.001-168.831-376.541-376.804-376.832h-0.028zM512 713.216c-30.822 0-55.808-24.986-55.808-55.808s24.986-55.808 55.808-55.808c30.822 0 55.808 24.986 55.808 55.808v0c0 30.822-24.986 55.808-55.808 55.808v0zM512 517.632c-0.001 0-0.002 0-0.003 0-23.007 0-41.692-18.506-41.981-41.445v-251.419c0-23.187 18.797-41.984 41.984-41.984s41.984 18.797 41.984 41.984v0 251.392c-0.289 22.966-18.974 41.472-41.981 41.472-0.001 0-0.002 0-0.003 0v0z" />
<glyph unicode="&#xe927;" glyph-name="qpaper" d="M174.080 125.44v-46.080c0-46.080 40.96-87.040 87.040-87.040h501.76c46.080 0 87.040 40.96 87.040 87.040v496.64c0 25.6-10.24 51.2-30.72 66.56l-271.36 240.64c-10.24 15.36-35.84 25.6-56.32 25.6h-230.4c-51.2 0-87.040-40.96-87.040-87.040v-51.2zM547.84 637.44v153.6l168.96-153.6h-168.96zM547.84 565.76h230.4v-491.52c0-10.24-5.12-15.36-15.36-15.36h-501.76c-10.24 0-15.36 5.12-15.36 15.36v747.52c0 10.24 5.12 15.36 15.36 15.36h215.040v-199.68c0-40.96 30.72-71.68 71.68-71.68zM174.080 693.76v-496.64zM399.36 212.48h240.64c20.48 0 35.84-15.36 35.84-35.84s-15.36-35.84-35.84-35.84h-240.64c-20.48 0-35.84 15.36-35.84 35.84s15.36 35.84 35.84 35.84zM460.8 340.48c20.48 0 35.84-15.36 35.84-35.84s-15.36-35.84-35.84-35.84h-61.44c-20.48 0-35.84 15.36-35.84 35.84s15.36 35.84 35.84 35.84h61.44z" />
<glyph unicode="&#xe928;" glyph-name="instu" d="M965.632 438.272l-115.712 115.712c-4.957 4.755-11.699 7.682-19.125 7.682-0.116 0-0.233-0.001-0.349-0.002h-133.102l-158.208 157.696v19.968h146.944c0.154-0.003 0.335-0.005 0.517-0.005 14.526 0 26.335 11.633 26.619 26.090v116.251c0 14.987-12.149 27.136-27.136 27.136h-174.080c-14.987 0-27.136-12.149-27.136-27.136v0-162.304l-158.208-157.696h-133.12c-0.098 0.001-0.215 0.002-0.331 0.002-7.426 0-14.168-2.927-19.135-7.691l0.010 0.009-115.712-115.712c-4.882-4.828-7.905-11.527-7.905-18.932 0-3.896 0.837-7.597 2.341-10.932l-0.068 0.168c3.961-9.693 13.316-16.398 24.238-16.398 0.299 0 0.597 0.005 0.893 0.015l-0.043-0.001v-377.856c0-14.987 12.149-27.136 27.136-27.136v0h812.544c14.987 0 27.136 12.149 27.136 27.136v0 0 377.856c0.253-0.009 0.551-0.014 0.85-0.014 10.922 0 20.277 6.705 24.175 16.224l0.063 0.174c1.436 3.167 2.273 6.868 2.273 10.764 0 7.405-3.023 14.104-7.902 18.93l-0.002 0.002zM881.152 448h-167.936v59.904h105.984zM658.432 793.088h-119.296v61.952h119.296zM204.8 507.904h105.984v-59.904h-167.936zM133.632 392.192h177.152v-353.792h-177.152zM365.568 523.776l146.432 146.432 146.432-146.432v-485.376h-61.44v117.76c0 14.987-12.149 27.136-27.136 27.136h-115.712c-14.987 0-27.136-12.149-27.136-27.136v0-117.76h-61.44zM481.28 38.4v93.184h61.44v-93.184zM890.88 38.4h-177.664v353.792h177.152zM454.144 247.296c14.987 0 27.136 12.149 27.136 27.136v0 29.184c0 14.987-12.149 27.136-27.136 27.136v0c-14.987 0-27.136-12.149-27.136-27.136v0-29.184c0-14.987 12.149-27.136 27.136-27.136v0zM569.856 330.24c-0.154 0.003-0.335 0.005-0.517 0.005-14.526 0-26.335-11.633-26.619-26.090v-29.211c0-14.987 12.149-27.136 27.136-27.136v0c14.987 0 27.136 12.149 27.136 27.136v0 29.184c0 14.704-11.92 26.624-26.624 26.624v0zM512 392.192c46.94 0 84.992 38.052 84.992 84.992s-38.052 84.992-84.992 84.992c-46.94 0-84.992-38.052-84.992-84.992v0 0c0-46.94 38.052-84.992 84.992-84.992v0zM512 507.904c0.305 0.011 0.664 0.017 1.024 0.017 16.966 0 30.72-13.754 30.72-30.72 0-0.006 0-0.012 0-0.018v0.001c0.003-0.154 0.004-0.335 0.004-0.516 0-17.070-13.695-30.942-30.697-31.228h-0.027c-0.305-0.011-0.664-0.017-1.024-0.017-16.966 0-30.72 13.754-30.72 30.72 0 0.006 0 0.012 0 0.018v-0.001c-0.011 0.305-0.017 0.664-0.017 1.024 0 16.966 13.754 30.72 30.72 30.72 0.006 0 0.012 0 0.018 0h-0.001z" />
<glyph unicode="&#xe929;" glyph-name="first" d="M547.84 448l384 384c15.36 15.36 15.36 46.080 0 61.44s-46.080 20.48-61.44 0v0l-419.84-414.72c-15.36-15.36-15.36-46.080 0-61.44l414.72-414.72c15.36-15.36 46.080-15.36 61.44 0s15.36 46.080 0 61.44l-378.88 384zM189.44 448l384 384c15.36 15.36 15.36 46.080 0 61.44s-46.080 20.48-61.44 0v0l-419.84-414.72c-15.36-15.36-15.36-46.080 0-61.44l414.72-414.72c15.36-15.36 46.080-20.48 61.44 0 15.36 15.36 20.48 46.080 0 61.44v0l-378.88 384z" />
<glyph unicode="&#xe92a;" glyph-name="last" d="M481.28 448l-384-384c-15.36-15.36-15.36-46.080 0-61.44s46.080-20.48 61.44 0v0l414.72 414.72c15.36 15.36 15.36 46.080 0 61.44l-414.72 419.84c-15.36 15.36-46.080 15.36-61.44 0-15.36-20.48-15.36-46.080 0-66.56l384-384zM839.68 448l-384-384c-15.36-15.36-15.36-46.080 0-61.44s46.080-20.48 61.44 0v0l414.72 414.72c15.36 15.36 15.36 46.080 0 61.44l-414.72 419.84c-15.36 15.36-46.080 15.36-61.44 0-15.36-20.48-15.36-46.080 0-66.56l384-384z" />
<glyph unicode="&#xe92b;" glyph-name="next" d="M656.896 448l-384.512-384.512c-8.055-8.060-13.037-19.192-13.037-31.488s4.982-23.428 13.037-31.488v0c7.94-8.311 19.111-13.478 31.488-13.478s23.548 5.167 31.472 13.462l0.016 0.017 416.256 415.744c8.085 8.142 13.082 19.359 13.082 31.744s-4.997 23.602-13.084 31.747l0.003-0.003-416.256 415.744c-7.976 7.607-18.801 12.288-30.72 12.288-24.601 0-44.544-19.943-44.544-44.544 0-11.919 4.681-22.744 12.305-30.738l-0.017 0.018z" />
<glyph unicode="&#xe92c;" glyph-name="prev" d="M367.104 448l384.512 384.512c8.055 8.060 13.037 19.192 13.037 31.488s-4.982 23.428-13.037 31.488v0c-7.94 8.311-19.111 13.478-31.488 13.478s-23.548-5.167-31.472-13.462l-0.016-0.017-416.256-415.744c-8.085-8.142-13.082-19.359-13.082-31.744s4.997-23.602 13.084-31.747l-0.003 0.003 416.256-415.744c8.129-8.524 19.574-13.824 32.256-13.824 24.601 0 44.544 19.943 44.544 44.544 0 12.682-5.3 24.127-13.806 32.239l-0.018 0.017z" />
<glyph unicode="&#xe92d;" glyph-name="custom" d="M426.496 228.352h-328.704c-25.732 0-46.592-20.86-46.592-46.592s20.86-46.592 46.592-46.592h328.704c25.732 0 46.592 20.86 46.592 46.592s-20.86 46.592-46.592 46.592v0zM795.648 358.912c-0.152 0-0.331 0.001-0.511 0.001-98.121 0-177.664-79.543-177.664-177.664s79.543-177.664 177.664-177.664c98.121 0 177.664 79.543 177.664 177.664 0 0.18 0 0.359-0.001 0.539v-0.028c0 97.838-79.314 177.152-177.152 177.152v0zM879.616 181.76c0.001-0.152 0.002-0.331 0.002-0.51 0-46.657-37.823-84.48-84.48-84.48s-84.48 37.823-84.48 84.48c0 46.657 37.823 84.48 84.48 84.48 0.179 0 0.359-0.001 0.538-0.002h-0.028c46.258-0.288 83.68-37.71 83.968-83.94v-0.028zM972.8 714.24c0 25.732-20.86 46.592-46.592 46.592h-328.704c-25.732 0-46.592-20.86-46.592-46.592s20.86-46.592 46.592-46.592h328.704c25.732 0 46.592 20.86 46.592 46.592v0zM228.352 537.088c0.152 0 0.331-0.001 0.511-0.001 98.121 0 177.664 79.543 177.664 177.664s-79.543 177.664-177.664 177.664c-98.121 0-177.664-79.543-177.664-177.664 0-0.18 0-0.359 0.001-0.539v0.028c0.29-97.721 79.431-176.862 177.124-177.152h0.028zM144.384 714.24c-0.001 0.152-0.002 0.331-0.002 0.51 0 46.657 37.823 84.48 84.48 84.48s84.48-37.823 84.48-84.48c0-46.657-37.823-84.48-84.48-84.48-0.179 0-0.359 0.001-0.538 0.002h0.028c-46.258 0.288-83.68 37.71-83.968 83.94v0.028z" />
<glyph unicode="&#xe92e;" glyph-name="sports" d="M972.8 540.16c0 15.36-15.36 30.72-30.72 30.72 0 0-40.96 10.24-87.040 10.24 0 0 0 0 0 0-15.36 0-35.84 0-56.32-5.12 5.12 25.6 5.12 56.32 5.12 76.8 0 30.72-5.12 56.32-5.12 56.32-5.12 15.36-15.36 25.6-30.72 30.72 0 0-20.48 5.12-51.2 5.12 0 0 0 0 0 0-35.84 0-61.44 0-81.92-5.12 5.12 20.48 5.12 35.84 5.12 51.2 0 46.080-5.12 87.040-10.24 87.040-5.12 15.36-15.36 25.6-35.84 30.72 0 0-20.48 0-51.2 0 0 0 0 0 0 0-76.8 0-133.12-15.36-163.84-46.080-5.12 0-5.12-5.12-5.12-10.24l-199.68-501.76c0 0 0 0 0 0l-71.68-71.68c-66.56-66.56-66.56-174.080 0-240.64 30.72-30.72 76.8-51.2 122.88-51.2s87.040 15.36 122.88 51.2l61.44 66.56 337.92 143.36c20.48 10.24 25.6 30.72 20.48 46.080-10.24 20.48-30.72 25.6-46.080 20.48l-81.92-35.84-61.44 66.56 179.2 138.24c0 0 5.12 0 5.12 5.12 0 0 5.12 5.12 5.12 5.12 10.24 10.24 46.080 20.48 92.16 20.48 0 0 0 0 0 0 15.36 0 30.72 0 46.080-5.12 0-5.12 0-10.24 0-15.36 0-71.68-10.24-107.52-25.6-117.76-15.36-15.36-15.36-35.84 0-51.2 5.12-5.12 15.36-10.24 25.6-10.24s20.48 5.12 25.6 10.24c30.72 30.72 46.080 87.040 46.080 168.96-5.12 20.48-5.12 40.96-5.12 46.080zM435.2 816.64c15.36 10.24 51.2 20.48 112.64 20.48 5.12 0 10.24 0 15.36 0 0-15.36 0-30.72 0-46.080 0-46.080-10.24-81.92-20.48-92.16 0 0 0 0 0 0s0 0-5.12-5.12l-133.12-179.2-61.44 61.44c0 0 0 0-5.12 5.12l97.28 235.52zM312.32 263.68l102.4 138.24 51.2-51.2-138.24-102.4-15.36 15.36zM256 314.88l-15.36 15.36 71.68 174.080 51.2-51.2-107.52-138.24zM291.84 89.6c-20.48-20.48-46.080-30.72-71.68-30.72s-51.2 10.24-66.56 30.72c-40.96 40.96-40.96 102.4 0 138.24l46.080 46.080 143.36-138.24-51.2-46.080zM568.32 248.32l-168.96-71.68-20.48 20.48 138.24 102.4 51.2-51.2zM455.68 463.36l138.24 189.44c15.36 10.24 56.32 20.48 122.88 20.48 0 0 0 0 0 0 5.12 0 10.24 0 15.36 0 0-5.12 0-10.24 0-15.36 0-51.2-10.24-97.28-20.48-117.76 0 0 0 0 0 0s0 0 0 0l-189.44-143.36-66.56 66.56z" />
<glyph unicode="&#xe92f;" glyph-name="celeb" d="M399.36 683.52c-5.12 10.24-20.48 15.36-30.72 10.24-10.24 0-20.48-10.24-25.6-20.48l-286.72-634.88c-5.12-15.36-5.12-30.72 5.12-40.96 5.12-5.12 15.36-10.24 25.6-10.24 5.12 0 10.24 0 15.36 5.12l322.56 148.48c15.36 5.12 25.6 25.6 20.48 40.96 0 0 0 5.12 0 5.12v358.4l71.68-71.68v-235.52c0-10.24 5.12-25.6 15.36-30.72s25.6-5.12 35.84 0l174.080 76.8c10.24 5.12 20.48 15.36 20.48 25.6s0 25.6-10.24 30.72l-353.28 343.040zM230.4 130.56l-71.68-30.72 71.68 158.72v-128zM373.76 192l-71.68-30.72v245.76c0 0 0 5.12 0 5.12l71.68 153.6v-373.76zM588.8 289.28v107.52l76.8-71.68-76.8-35.84zM875.52 806.4c15.36-15.36 15.36-35.84 0-51.2l-199.68-199.68c-5.12-5.12-15.36-10.24-25.6-10.24s-20.48 5.12-25.6 10.24c-15.36 15.36-15.36 35.84 0 51.2l199.68 199.68c10.24 15.36 35.84 15.36 51.2 0zM532.48 657.92c-15.36 15.36-15.36 35.84 0 51.2s15.36 25.6 15.36 40.96c0 20.48 15.36 35.84 35.84 35.84s35.84-15.36 35.84-35.84c0-20.48 0-56.32-35.84-92.16-5.12-5.12-15.36-10.24-25.6-10.24s-15.36 0-25.6 10.24zM901.12 872.96c0 20.48 15.36 35.84 35.84 35.84s35.84-15.36 35.84-35.84c0-20.48-15.36-35.84-35.84-35.84s-35.84 15.36-35.84 35.84zM547.84 872.96c0 20.48 15.36 35.84 35.84 35.84s35.84-15.36 35.84-35.84c0-20.48-15.36-35.84-35.84-35.84s-35.84 15.36-35.84 35.84zM849.92 514.56c0-20.48-15.36-35.84-35.84-35.84-15.36 0-30.72 0-40.96-15.36-5.12-5.12-15.36-10.24-25.6-10.24s-20.48 5.12-25.6 10.24c-15.36 15.36-15.36 35.84 0 51.2 35.84 35.84 71.68 35.84 92.16 35.84s35.84-15.36 35.84-35.84zM972.8 514.56c0-20.48-15.36-35.84-35.84-35.84s-35.84 15.36-35.84 35.84c0 20.48 15.36 35.84 35.84 35.84s35.84-15.36 35.84-35.84z" />
<glyph unicode="&#xe930;" glyph-name="flag" d="M942.080 437.76l-184.32 163.84 179.2 153.6c0 0 0 0 0 0 30.72 25.6 40.96 61.44 25.6 97.28-10.24 30.72-40.96 56.32-81.92 56.32h-686.080c-76.8 0-143.36-66.56-143.36-143.36v-742.4c0-20.48 15.36-35.84 35.84-35.84s35.84 15.36 35.84 35.84v742.4c0 40.96 30.72 71.68 71.68 71.68h686.080c10.24 0 15.36-10.24 15.36-10.24 0-5.12 5.12-10.24-5.12-20.48l-215.040-179.2c-10.24-5.12-10.24-15.36-15.36-25.6 0-10.24 5.12-20.48 10.24-25.6l215.040-189.44c10.24-5.12 5.12-15.36 5.12-20.48s-5.12-10.24-15.36-10.24h-614.4c-20.48 0-35.84-15.36-35.84-35.84s15.36-35.84 35.84-35.84h614.4c35.84 0 71.68 20.48 81.92 56.32 20.48 30.72 15.36 71.68-15.36 97.28z" />
<glyph unicode="&#xe931;" glyph-name="guest-lec" horiz-adv-x="1266" d="M1036.588 508.122c7.504-10.073 12.014-22.763 12.014-36.505 0-15.090-5.437-28.91-14.46-39.608l0.076 0.092-205.912-245.23c-11.353-13.517-28.263-22.048-47.165-22.048-25.633 0-47.602 15.689-56.827 37.989l-0.149 0.408-90.49 226.92c-2.4 5.494-5.562 10.202-9.418 14.242l0.018-0.019 56.566-426.946h-484.166l55.013 427.927c-3.679-4.062-6.665-8.834-8.72-14.074l-0.108-0.313-123.433-346.674c-9.514-22.398-31.325-37.82-56.739-37.82-33.95 0-61.471 27.522-61.471 61.471 0 6.137 0.899 12.064 2.573 17.656l-0.112-0.435 123.433 346.756c27.028 68.334 91.493 116.272 167.446 118.684l0.291 0.007h283.404c75.731-2.752 140.069-48.809 169.211-114.035l0.488-1.223 53.951-135.285 138.31 170.272c11.352 13.464 28.229 21.958 47.090 21.958 11.481 0 22.226-3.147 31.421-8.626l-0.282 0.156 228.8 288.064 19.21-15.286-7.602-9.646zM450.57 632.372c90.291 0 163.487 73.196 163.487 163.487s-73.196 163.487-163.487 163.487c-90.291 0-163.487-73.196-163.487-163.487v0c0-90.291 73.196-163.487 163.487-163.487v0zM81.907 17.907v-81.743h737.326v81.743z" />
<glyph unicode="&#xe932;" glyph-name="tbl-cust" d="M865.28 908.8h-706.56c-61.44 0-107.52-46.080-107.52-107.52v-706.56c0-61.44 46.080-107.52 107.52-107.52h706.56c61.44 0 107.52 46.080 107.52 107.52v706.56c0 61.44-46.080 107.52-107.52 107.52zM368.64 58.88h-209.92c-20.48 0-35.84 15.36-35.84 35.84v527.36h245.76v-563.2zM368.64 693.76h-245.76v107.52c0 20.48 15.36 35.84 35.84 35.84h209.92v-143.36zM901.12 94.72c0-20.48-15.36-35.84-35.84-35.84h-424.96v563.2h460.8v-527.36zM901.12 693.76h-460.8v143.36h424.96c20.48 0 35.84-15.36 35.84-35.84v-107.52z" />
<glyph unicode="&#xe933;" glyph-name="calc" d="M757.76 724.48c0 20.48-15.36 35.84-35.84 35.84h-419.84c-20.48 0-35.84-15.36-35.84-35.84v-143.36c0-20.48 15.36-35.84 35.84-35.84h419.84c20.48 0 35.84 15.36 35.84 35.84v143.36zM686.080 611.84h-348.16v76.8h348.16v-76.8zM368.64 442.88c0-20.48-15.36-35.84-35.84-35.84h-25.6c-20.48 0-35.84 15.36-35.84 35.84s15.36 35.84 35.84 35.84h30.72c15.36 0 30.72-15.36 30.72-35.84zM368.64 309.76c0-20.48-15.36-35.84-35.84-35.84h-25.6c-20.48 0-35.84 15.36-35.84 35.84s15.36 35.84 35.84 35.84h30.72c15.36 0 30.72-15.36 30.72-35.84zM368.64 171.52c0-20.48-15.36-35.84-35.84-35.84h-25.6c-20.48 0-35.84 15.36-35.84 35.84s15.36 35.84 35.84 35.84h30.72c15.36 0 30.72-15.36 30.72-35.84zM563.2 442.88c0-20.48-15.36-35.84-35.84-35.84h-30.72c-20.48 0-35.84 15.36-35.84 35.84s15.36 35.84 35.84 35.84h30.72c20.48 0 35.84-15.36 35.84-35.84zM563.2 309.76c0-20.48-15.36-35.84-35.84-35.84h-30.72c-20.48 0-35.84 15.36-35.84 35.84s15.36 35.84 35.84 35.84h30.72c20.48 0 35.84-15.36 35.84-35.84zM563.2 171.52c0-20.48-15.36-35.84-35.84-35.84h-30.72c-20.48 0-35.84 15.36-35.84 35.84s15.36 35.84 35.84 35.84h30.72c20.48 0 35.84-15.36 35.84-35.84zM716.8 407.040h-30.72c-20.48 0-35.84 15.36-35.84 35.84s15.36 35.84 35.84 35.84h30.72c20.48 0 35.84-15.36 35.84-35.84s-15.36-35.84-35.84-35.84zM701.44 340.48c20.48 0 35.84-15.36 35.84-35.84v-128c0-20.48-15.36-35.84-35.84-35.84s-35.84 15.36-35.84 35.84v128c0 20.48 15.36 35.84 35.84 35.84zM834.56 309.76v455.68c0 40.96-30.72 71.68-71.68 71.68h-501.76c-40.96 0-71.68-30.72-71.68-71.68v-634.88c0-40.96 30.72-71.68 71.68-71.68h506.88c40.96 0 71.68 30.72 71.68 71.68 0 20.48 15.36 35.84 35.84 35.84s35.84-15.36 35.84-35.84c0-81.92-66.56-143.36-143.36-143.36h-506.88c-81.92 0-143.36 66.56-143.36 143.36v634.88c0 76.8 61.44 143.36 143.36 143.36h506.88c81.92 0 143.36-66.56 143.36-143.36v-455.68c0-20.48-15.36-35.84-35.84-35.84-25.6 0-40.96 15.36-40.96 35.84z" />
<glyph unicode="&#xe934;" glyph-name="minus" d="M972.8 448v0c0-20.48-15.36-40.96-40.96-40.96h-844.8c-20.48 0-35.84 20.48-35.84 40.96v0c0 20.48 15.36 35.84 35.84 35.84h844.8c25.6 5.12 40.96-15.36 40.96-35.84z" />
<glyph unicode="&#xe935;" glyph-name="cmnt" d="M901.12 488.96v256c0 40.96-30.72 71.68-71.68 71.68h-634.88c-40.96 0-71.68-35.84-71.68-71.68v-430.080c0-40.96 30.72-71.68 71.68-71.68 61.44 0 112.64-51.2 112.64-112.64v-25.6l76.8 76.8c40.96 40.96 92.16 61.44 143.36 61.44h296.96c40.96 0 71.68 30.72 71.68 71.68 0 20.48 15.36 35.84 35.84 35.84s35.84-15.36 35.84-35.84c0-81.92-66.56-143.36-143.36-143.36h-296.96c-35.84 0-66.56-15.36-92.16-40.96l-102.4-102.4c-10.24-10.24-25.6-15.36-40.96-15.36-5.12 0-15.36 0-20.48 5.12-20.48 10.24-35.84 30.72-35.84 51.2v61.44c0 20.48-15.36 40.96-40.96 40.96-81.92 0-143.36 66.56-143.36 143.36v430.080c0 81.92 66.56 143.36 143.36 143.36h634.88c81.92 0 143.36-66.56 143.36-143.36v-250.88c0-20.48-15.36-35.84-35.84-35.84-20.48-5.12-35.84 15.36-35.84 30.72zM757.76 709.12h-491.52c-20.48 0-35.84-15.36-35.84-35.84s15.36-35.84 35.84-35.84h491.52c20.48 0 35.84 15.36 35.84 35.84s-15.36 35.84-35.84 35.84zM793.6 524.8c0 20.48-15.36 35.84-35.84 35.84h-491.52c-20.48 0-35.84-15.36-35.84-35.84s15.36-35.84 35.84-35.84h491.52c20.48 0 35.84 20.48 35.84 35.84zM266.24 417.28c-20.48 0-35.84-15.36-35.84-35.84s15.36-35.84 35.84-35.84h348.16c20.48 0 35.84 15.36 35.84 35.84s-15.36 35.84-35.84 35.84h-348.16z" />
<glyph unicode="&#xe936;" glyph-name="repeat" horiz-adv-x="1011" d="M709.404 528.909c-12.642 0-18.963 6.321-31.605 12.642-18.963 18.963-18.963 44.247 0 56.889l139.062 139.062-132.741 132.741c-18.963 18.963-18.963 44.247 0 56.889s44.247 18.963 56.889 0l164.346-164.346c6.321-6.321 12.642-18.963 12.642-31.605s-6.321-18.963-12.642-31.605l-164.346-164.346c-6.321 0-18.963-6.321-31.605-6.321zM134.195 446.736c-25.284 0-37.926 18.963-37.926 44.247v82.173c0 113.778 94.815 208.593 208.593 208.593h575.21c25.284 0 44.247-18.963 44.247-37.926s-18.963-37.926-44.247-37.926h-581.531c-69.531 0-126.42-56.889-126.42-126.42v-88.494c0-25.284-12.642-44.247-37.926-44.247zM298.54-46.301c-12.642 0-18.963 6.321-31.605 12.642l-164.346 164.346c-18.963 18.963-18.963 44.247 0 56.889l164.346 164.346c18.963 18.963 44.247 18.963 56.889 0s18.963-44.247 0-56.889l-139.062-139.062 139.062-139.062c18.963-18.963 18.963-44.247 0-56.889-6.321-6.321-12.642-6.321-25.284-6.321zM709.404 118.044h-575.21c-25.284 0-37.926 18.963-37.926 44.247s18.963 44.247 37.926 44.247h575.21c69.531 0 126.42 56.889 126.42 126.42v75.852c0 25.284 18.963 37.926 44.247 37.926s44.247-18.963 44.247-37.926v-82.173c-6.321-113.778-101.136-208.593-214.914-208.593z" />
<glyph unicode="&#xe937;" glyph-name="doc" d="M287.918 864c0.209 35.38 28.937 64 64.355 64h319.727v-192.061c0-35.565 28.739-63.939 64.189-63.939h159.811v-544.082c0-35.408-28.617-63.918-63.918-63.918-0.209-35.38-28.777-64-64-64-0.209-35.38-28.777-64-64-64h-480.165c-35.408 0-63.918 28.759-63.918 64.235v735.531c0 35.488 28.617 64.235 63.918 64.235 0.082 35.253 28.699 64 64 64v0zM224 64.235l-0.001 703.765c-17.672 0-31.999-14.568-31.999-31.855v-736.291c0-17.593 14.551-31.855 31.999-31.855h480.003c17.672 0 31.999 14.568 31.999 31.855l-448.082 0.145c-35.408 0-63.918 28.759-63.918 64.235zM256 800.145v-736.291c0-17.593 14.551-31.855 31.999-31.855h480.003c17.672 0 31.999 14.568 31.999 31.855l-448.082 0.145c-35.408 0-63.918 28.759-63.918 64.235v703.765c-17.674 0-32-14.568-32-31.855v0zM704 928v-191.906c0-17.725 14.431-32.094 31.705-32.094h160.295l-192 224z" />
<glyph unicode="&#xe938;" glyph-name="stud" d="M896 104.96c-5.12 20.48-25.6 30.72-40.96 25.6-20.48-5.12-30.72-25.6-25.6-40.96 0-5.12 0-15.36-5.12-20.48s-10.24-10.24-20.48-10.24h-240.64l97.28 250.88c35.84-20.48 66.56-40.96 92.16-71.68 15.36-15.36 35.84-15.36 51.2-5.12 15.36 15.36 15.36 35.84 5.12 51.2-46.080 51.2-102.4 87.040-163.84 112.64 46.080 35.84 71.68 92.16 71.68 153.6 0 35.84-10.24 71.68-25.6 102.4l112.64 40.96v-179.2c0-20.48 15.36-35.84 35.84-35.84s35.84 15.36 35.84 35.84v230.4c0 0 0 0 0 0s0 0 0 0v0c0 15.36-10.24 30.72-25.6 35.84l-322.56 128c-10.24 0-20.48 0-25.6 0l-327.68-122.88c-15.36-10.24-25.6-20.48-25.6-35.84v0c0-15.36 10.24-30.72 25.6-35.84l158.72-56.32c-15.36-35.84-25.6-71.68-25.6-107.52 0-61.44 30.72-122.88 71.68-158.72-40.96-15.36-81.92-35.84-117.76-66.56-66.56-56.32-117.76-138.24-133.12-225.28-5.12-30.72 0-56.32 20.48-81.92 20.48-15.36 46.080-30.72 76.8-30.72h578.56c30.72 0 56.32 15.36 71.68 35.84 20.48 20.48 25.6 51.2 20.48 81.92zM286.72 750.080l225.28 81.92 225.28-87.040-102.4-35.84c-35.84 15.36-92.16 20.48-122.88 20.48-35.84 0-87.040-5.12-122.88-20.48l-102.4 40.96zM378.88 550.4c0 35.84 15.36 71.68 40.96 97.28 5.12 5.12 35.84 10.24 92.16 10.24 0 0 0 0 0 0 56.32 0 87.040-10.24 97.28-15.36 25.6-25.6 40.96-61.44 40.96-97.28 0-76.8-61.44-133.12-133.12-133.12s-138.24 66.56-138.24 138.24zM225.28 58.88c-10.24 0-15.36 5.12-20.48 10.24s-5.12 10.24-5.12 20.48c20.48 97.28 81.92 174.080 163.84 220.16l97.28-250.88h-235.52zM430.080 335.36c25.6 5.12 51.2 10.24 81.92 10.24 25.6 0 56.32-5.12 81.92-10.24l-81.92-204.8-81.92 204.8z" />
<glyph unicode="&#xe939;" glyph-name="staff" d="M865.28 115.2c5.12-30.72 0-61.44-20.48-81.92-20.48-25.6-46.080-35.84-76.8-35.84h-604.16c-30.72 0-56.32 15.36-76.8 35.84-20.48 25.6-25.6 51.2-20.48 81.92 20.48 92.16 66.56 174.080 138.24 230.4 35.84 30.72 76.8 56.32 122.88 71.68-51.2 40.96-81.92 102.4-81.92 168.96 0 117.76 97.28 215.040 215.040 215.040 20.48 0 35.84 0 56.32-5.12s30.72-25.6 25.6-46.080c-5.12-20.48-25.6-30.72-46.080-25.6-5.12 0-15.36 0-30.72 0-81.92 0-143.36-66.56-143.36-143.36 0-81.92 66.56-143.36 143.36-143.36 51.2 0 92.16 25.6 122.88 66.56 10.24 15.36 30.72 20.48 51.2 10.24 15.36-10.24 20.48-30.72 10.24-51.2-15.36-20.48-30.72-35.84-46.080-51.2 66.56-25.6 128-61.44 174.080-117.76 15.36-15.36 10.24-35.84-5.12-51.2s-35.84-10.24-51.2 5.12c-61.44 71.68-153.6 117.76-256 117.76-158.72 0-296.96-112.64-327.68-266.24 0-10.24 0-15.36 5.12-25.6 5.12-5.12 10.24-10.24 20.48-10.24h604.16c10.24 0 15.36 5.12 20.48 10.24s5.12 15.36 5.12 25.6c-5.12 20.48 10.24 40.96 25.6 40.96 25.6 5.12 46.080-10.24 46.080-25.6zM983.040 632.32l-15.36-30.72c-10.24-15.36-25.6-25.6-40.96-20.48l-40.96 20.48c-10.24-10.24-20.48-15.36-35.84-20.48l-5.12-40.96c-5.12-15.36-15.36-30.72-35.84-30.72h-30.72c-15.36 0-30.72 10.24-35.84 30.72l-5.12 40.96c-10.24 5.12-20.48 10.24-25.6 15.36l-40.96-15.36c-15.36-5.12-35.84 0-46.080 15.36l-15.36 30.72c-10.24 15.36-5.12 35.84 10.24 46.080l35.84 25.6c0 0 0 0 0 0s0 0 0 0 0 5.12 0 5.12c0 0 0 5.12 0 5.12l-35.84 25.6c-15.36 10.24-20.48 30.72-10.24 46.080l15.36 30.72c10.24 15.36 25.6 25.6 40.96 20.48l40.96-15.36c10.24 5.12 20.48 15.36 30.72 20.48l5.12 40.96c0 15.36 15.36 30.72 35.84 30.72h35.84c15.36 0 30.72-10.24 35.84-30.72l5.12-40.96c0 0 0 0 0 0s0 0 0 0 5.12 0 5.12 0c0 0 0 0 0 0 5.12-5.12 10.24-5.12 15.36-10.24l46.080 15.36c15.36 5.12 35.84 0 46.080-15.36l15.36-30.72c10.24-15.36 5.12-35.84-10.24-46.080l-35.84-25.6c0 0 0 0 0 0s0 0 0 0 0-5.12 0-5.12c0 0 0-5.12 0-5.12l35.84-35.84c15.36-10.24 20.48-25.6 10.24-46.080zM721.92 709.12c0 0 0 0 0 0 0-5.12 0-5.12 0-5.12s0 0 0-5.12c0 0 0 0 0 0s0 0 0-5.12c0 0 0 0 0 0s0 0 0-5.12c5.12-10.24 10.24-25.6 20.48-30.72 0 0 0 0 0 0s0 0 0 0 0 0 5.12 0c0 0 0 0 0 0s0 0 0 0 0 0 0 0 0 0 0 0 0 0 5.12 0c0 0 0 0 0 0s0 0 0 0 0 0 0 0 0 0 5.12 0c0 0 0 0 5.12 0 0 0 0 0 0 0s0 0 5.12 0 10.24-5.12 20.48-5.12c5.12 0 10.24 0 15.36 0 0 0 5.12 0 5.12 0s0 0 0 0 0 0 5.12 0c0 0 0 0 0 0s0 0 0 0 0 0 0 0 0 0 0 0 0 0 5.12 0c0 0 0 0 0 0s0 0 0 0 0 0 5.12 0c0 0 0 0 0 0s0 0 5.12 0c0 0 0 0 0 0s0 0 5.12 5.12c10.24 10.24 15.36 20.48 15.36 30.72 0 0 0 0 0 0s0 0 0 0 0 0 0 5.12c0 0 0 0 0 0s0 5.12 0 5.12c0 0 0 5.12 0 5.12s0 0 0 0 0 0 0 5.12c0 0 0 0 0 0s0 0 0 5.12c0 0 0 0 0 0s0 0 0 5.12c-5.12 10.24-10.24 25.6-20.48 30.72 0 0 0 0 0 0s0 0 0 0 0 0-5.12 5.12c0 0 0 0 0 0s0 0 0 0 0 0 0 0 0 0-5.12 0c0 0 0 0 0 0s0 0 0 0 0 0 0 0 0 0-5.12 0c0 0 0 0 0 0s0 0-5.12 0c0 0 0 0 0 0s0 0-5.12 0-10.24 5.12-20.48 5.12c-5.12 0-15.36 0-20.48 0 0 0 0 0-5.12 0 0 0 0 0 0 0s0 0 0 0-5.12 0-5.12 0c0 0 0 0 0 0s0 0-5.12 0c0 0 0 0 0 0s-5.12 0-5.12-5.12c0 0 0 0 0 0s0 0-5.12 0c0 0 0 0 0 0s-5.12 0-5.12-5.12c0 0 0 0 0 0s0 0 0 0 0 0 0 0c-10.24-10.24-15.36-20.48-20.48-35.84 0 0 0 0 0-5.12 0 0 0 0 0 0s0 0 0-5.12c0 0 0 0 0 0 10.24 15.36 10.24 10.24 10.24 5.12 0 5.12 0 5.12 0 0 0 5.12 0 5.12 0 0z" />
<glyph unicode="&#xe93a;" glyph-name="more-h" d="M163.84 335.36c-61.44 0-112.64 51.2-112.64 112.64s51.2 112.64 112.64 112.64 112.64-51.2 112.64-112.64-46.080-112.64-112.64-112.64zM860.16 335.36c-61.44 0-112.64 51.2-112.64 112.64s51.2 112.64 112.64 112.64 112.64-51.2 112.64-112.64-51.2-112.64-112.64-112.64zM512 335.36c-61.44 0-112.64 51.2-112.64 112.64s51.2 112.64 112.64 112.64 112.64-51.2 112.64-112.64-51.2-112.64-112.64-112.64z" />
<glyph unicode="&#xe93b;" glyph-name="group" horiz-adv-x="1179" d="M491.158 0.935c0.078-23.848 6.338-46.217 17.26-65.611l-0.35 0.675h-413.456c-52.128 0.048-94.384 42.245-94.528 94.345v141.468c0.574 129.958 105.771 235.155 235.674 235.729h407.846c9.273-30.461 23.442-56.909 41.795-79.866l-0.365 0.472c-110.699-19.522-193.738-114.906-193.876-229.711v-0.015zM447.868 478.227c-0.013 0-0.028 0-0.043 0-133.085 0-240.971 107.886-240.971 240.971s107.886 240.971 240.971 240.971c133.085 0 240.971-107.886 240.971-240.971 0-66.532-26.963-126.766-70.558-170.371l0.001 0.001c-43.595-43.618-103.832-70.598-170.37-70.6v0zM1178.729 0.935c-0.096-35.824-29.111-64.839-64.926-64.935h-487.024c-35.824 0.096-64.839 29.111-64.935 64.926v97.412c0.24 89.56 72.778 162.098 162.315 162.338h292.232c89.56-0.24 162.098-72.778 162.338-162.315v-0.023zM1036.175 475.268c-0.015-91.607-74.281-165.863-165.89-165.863-91.618 0-165.89 74.271-165.89 165.89s74.271 165.89 165.89 165.89c45.837 0 87.331-18.59 117.356-48.642l0.001-0.001c29.987-30.015 48.532-71.465 48.532-117.246 0-0.009 0-0.019 0-0.028v0.001z" />
<glyph unicode="&#xe93c;" glyph-name="chatroom" d="M972.8 74.24c-5.12 20.48-25.6 30.72-40.96 25.6-20.48-5.12-30.72-25.6-25.6-40.96 0 0 0 0 0 0h-353.28c0 0 0 0 0 0 15.36 81.92 92.16 143.36 174.080 143.36 35.84 0 76.8-10.24 102.4-35.84 15.36-10.24 40.96-10.24 51.2 10.24 10.24 15.36 10.24 40.96-10.24 51.2-15.36 10.24-25.6 15.36-40.96 25.6 20.48 25.6 35.84 56.32 35.84 92.16 0 76.8-61.44 138.24-138.24 138.24s-138.24-61.44-138.24-138.24c0-35.84 15.36-66.56 35.84-92.16-20.48-10.24-40.96-20.48-56.32-35.84-20.48-15.36-35.84-35.84-51.2-61.44-15.36 20.48-30.72 40.96-51.2 61.44-15.36 15.36-35.84 25.6-56.32 35.84 20.48 25.6 35.84 56.32 35.84 92.16 0 76.8-61.44 138.24-138.24 138.24s-148.48-61.44-148.48-138.24c0-35.84 15.36-66.56 35.84-92.16-20.48-10.24-35.84-20.48-56.32-35.84-40.96-30.72-66.56-76.8-81.92-128 0 0 0 0 0 0s0 0 0 0c0-5.12-5.12-10.24-5.12-15.36-5.12-20.48 0-46.080 15.36-61.44s35.84-25.6 56.32-25.6h778.24c20.48 0 40.96 10.24 56.32 25.6 15.36 20.48 20.48 40.96 15.36 61.44zM721.92 417.28c35.84 0 66.56-30.72 66.56-66.56s-30.72-66.56-66.56-66.56c-35.84 0-66.56 30.72-66.56 66.56s30.72 66.56 66.56 66.56zM302.080 412.16c35.84 0 66.56-30.72 66.56-66.56s-30.72-66.56-66.56-66.56-71.68 30.72-71.68 66.56 30.72 66.56 71.68 66.56zM122.88 58.88c0 0 0 0 0 0 15.36 81.92 92.16 143.36 174.080 143.36 0 0 0 0 0 0s0 0 0 0c87.040 0 158.72-61.44 174.080-143.36 0 0 0 0 0 0h-348.16c0 0 0 0 0 0zM619.52 739.84c0 20.48 15.36 35.84 35.84 35.84s35.84-15.36 35.84-35.84c0-20.48-15.36-35.84-35.84-35.84s-35.84 15.36-35.84 35.84zM476.16 739.84c0 15.36 15.36 35.84 35.84 35.84s35.84-15.36 35.84-35.84c0-20.48-15.36-35.84-35.84-35.84s-35.84 15.36-35.84 35.84zM332.8 739.84c0 20.48 15.36 35.84 35.84 35.84s35.84-15.36 35.84-35.84c0-20.48-15.36-35.84-35.84-35.84s-35.84 15.36-35.84 35.84zM322.56 565.76h20.48c0-5.12 0-10.24-5.12-20.48-10.24-10.24-5.12-30.72 5.12-40.96s25.6-10.24 40.96-5.12c35.84 15.36 66.56 35.84 87.040 71.68h87.040c20.48-30.72 51.2-51.2 87.040-66.56 5.12 0 10.24-5.12 15.36-5.12 10.24 0 20.48 5.12 25.6 10.24 10.24 10.24 10.24 25.6 5.12 40.96-5.12 5.12-5.12 15.36-5.12 20.48h20.48c81.92 0 143.36 66.56 143.36 143.36v51.2c0 81.92-66.56 143.36-143.36 143.36h-384c-81.92 0-143.36-66.56-143.36-143.36v-56.32c0-76.8 61.44-143.36 143.36-143.36zM250.88 765.44c0 40.96 30.72 71.68 71.68 71.68h384c40.96 0 71.68-30.72 71.68-71.68v-56.32c0-40.96-30.72-71.68-71.68-71.68h-46.080c-10.24 0-25.6-5.12-30.72-15.36-5.12-5.12-10.24-10.24-15.36-20.48-5.12 5.12-10.24 10.24-10.24 15.36-5.12 10.24-20.48 15.36-30.72 15.36h-122.88c-15.36 0-25.6-5.12-30.72-20.48-5.12 0-10.24-5.12-15.36-10.24 0 5.12-5.12 10.24-5.12 15.36-5.12 15.36-20.48 20.48-30.72 20.48h-46.080c-40.96 0-71.68 30.72-71.68 71.68v56.32z" />
<glyph unicode="&#xe93d;" glyph-name="admission" d="M680.96 350.72c0 25.6-10.24 51.2-30.72 71.68-10.24 10.24-25.6 20.48-46.080 30.72 10.24 15.36 15.36 35.84 15.36 56.32 0 61.44-46.080 107.52-107.52 107.52s-107.52-51.2-107.52-112.64c0-20.48 5.12-40.96 15.36-56.32-20.48-10.24-35.84-20.48-46.080-30.72-20.48-15.36-30.72-40.96-30.72-71.68v-20.48c0-15.36 15.36-30.72 35.84-30.72s35.84 15.36 35.84 35.84v20.48c0 5.12 0 10.24 5.12 15.36 20.48 15.36 46.080 30.72 92.16 30.72s71.68-15.36 92.16-30.72c5.12-5.12 5.12-10.24 5.12-15.36v-20.48c0-20.48 15.36-35.84 35.84-35.84s35.84 15.36 35.84 35.84v20.48zM476.16 504.32c0 20.48 15.36 35.84 35.84 35.84s35.84-15.36 35.84-35.84-15.36-35.84-35.84-35.84c-20.48 0-35.84 15.36-35.84 35.84zM680.96 186.88c0-20.48-15.36-35.84-35.84-35.84h-266.24c-20.48 0-35.84 15.36-35.84 35.84s15.36 35.84 35.84 35.84h266.24c20.48 0 35.84-15.36 35.84-35.84zM839.68 273.92c20.48 0 35.84 15.36 35.84 35.84v363.52c0 81.92-66.56 143.36-143.36 143.36h-112.64c-10.24 51.2-56.32 92.16-107.52 92.16s-97.28-40.96-107.52-92.16h-112.64c-81.92 0-143.36-61.44-143.36-143.36v-542.72c0-81.92 66.56-143.36 143.36-143.36h440.32c81.92 0 143.36 66.56 143.36 143.36 0 20.48-15.36 35.84-35.84 35.84s-35.84-15.36-35.84-35.84c0-40.96-30.72-71.68-71.68-71.68h-440.32c-40.96 0-71.68 30.72-71.68 71.68v542.72c0 40.96 30.72 71.68 71.68 71.68h128c15.36-30.72 51.2-56.32 92.16-56.32s76.8 20.48 92.16 56.32h128c40.96 0 71.68-30.72 71.68-71.68v-363.52c0-20.48 15.36-35.84 35.84-35.84zM512 765.44c-20.48 0-35.84 15.36-35.84 35.84v0c0 20.48 15.36 35.84 35.84 35.84s35.84-15.36 35.84-35.84v0c0-20.48-15.36-35.84-35.84-35.84z" />
<glyph unicode="&#xe93e;" glyph-name="f-docu" d="M706.56 371.2c0-20.48-15.36-40.96-40.96-40.96h-307.2c-20.48 0-35.84 15.36-35.84 40.96 0 20.48 15.36 35.84 35.84 35.84h307.2c20.48 5.12 40.96-15.36 40.96-35.84zM552.96 258.56h-194.56c-20.48 0-35.84-15.36-35.84-35.84s15.36-40.96 35.84-40.96h189.44c20.48 0 35.84 15.36 35.84 40.96 5.12 15.36-10.24 35.84-30.72 35.84zM896 504.32v-327.68c0-107.52-87.040-189.44-189.44-189.44h-384c-107.52 0-189.44 87.040-189.44 189.44v542.72c-5.12 102.4 81.92 189.44 189.44 189.44h174.080c71.68 0 138.24-30.72 189.44-76.8l133.12-138.24c51.2-46.080 76.8-117.76 76.8-189.44zM629.76 775.68c-10.24 10.24-25.6 20.48-40.96 30.72v-163.84c0-20.48 15.36-35.84 35.84-35.84h163.84c-10.24 15.36-20.48 30.72-30.72 40.96l-128 128zM814.080 504.32c0 5.12 0 10.24 0 20.48h-184.32c-61.44 0-112.64 51.2-112.64 112.64v194.56c-5.12 0-10.24 0-20.48 0h-174.080c-66.56 0-117.76-51.2-117.76-112.64v-537.6c0-61.44 51.2-112.64 112.64-112.64h384c61.44 0 112.64 51.2 112.64 112.64v322.56z" />
<glyph unicode="&#xe93f;" glyph-name="f-img" d="M778.24 908.8h-532.48c-107.52 0-194.56-87.040-194.56-194.56v-537.6c0-102.4 87.040-189.44 194.56-189.44h537.6c107.52 0 189.44 87.040 194.56 194.56v532.48c-5.12 107.52-92.16 194.56-199.68 194.56zM245.76 832h537.6c61.44 0 112.64-51.2 112.64-112.64v-537.6c0-15.36-5.12-35.84-10.24-51.2l-353.28 353.28c-76.8 76.8-194.56 76.8-271.36 0v0l-133.12-133.12v363.52c0 66.56 51.2 117.76 117.76 117.76zM245.76 64c-61.44 0-112.64 51.2-112.64 112.64v61.44l189.44 189.44c46.080 46.080 117.76 46.080 163.84 0v0l353.28-353.28c-15.36-5.12-30.72-10.24-51.2-10.24 0 0-542.72 0-542.72 0zM665.6 504.32c71.68 0 133.12 61.44 133.12 133.12s-61.44 138.24-133.12 138.24-133.12-61.44-133.12-133.12 61.44-138.24 133.12-138.24zM665.6 698.88c30.72 0 56.32-25.6 56.32-56.32s-25.6-61.44-56.32-61.44-56.32 25.6-56.32 56.32 25.6 61.44 56.32 61.44z" />
<glyph unicode="&#xe940;" glyph-name="f-pdf" d="M706.56 396.8c-35.84 25.6-71.68 56.32-92.16 76.8-30.72 30.72-56.32 56.32-76.8 87.040 35.84 107.52 51.2 163.84 51.2 194.56 0 128-46.080 153.6-112.64 153.6-56.32 0-117.76-25.6-117.76-158.72 0-56.32 30.72-128 92.16-209.92-15.36-46.080-30.72-102.4-51.2-158.72-10.24-30.72-20.48-56.32-30.72-81.92-10.24 0-20.48-5.12-25.6-10.24-30.72-15.36-61.44-30.72-87.040-40.96-122.88-56.32-204.8-97.28-204.8-174.080 0-51.2 61.44-87.040 112.64-87.040 71.68 0 179.2 97.28 256 256 81.92 30.72 184.32 56.32 261.12 71.68 66.56-51.2 133.12-97.28 168.96-97.28 97.28 0 112.64 56.32 112.64 102.4 0 92.16-102.4 92.16-153.6 92.16-5.12-5.12-46.080-5.12-102.4-15.36zM163.84 64c-20.48 0-35.84 10.24-40.96 10.24 0 25.6 81.92 66.56 158.72 102.4 5.12 0 10.24 5.12 15.36 5.12-51.2-76.8-107.52-117.76-133.12-117.76zM435.2 750.080c0 81.92 25.6 81.92 40.96 81.92 25.6 0 40.96 0 40.96-76.8 0-15.36-10.24-56.32-30.72-117.76-35.84 46.080-51.2 81.92-51.2 112.64zM465.92 340.48c0 5.12 5.12 15.36 5.12 20.48 15.36 40.96 25.6 81.92 40.96 117.76 15.36-15.36 30.72-35.84 51.2-56.32 5.12-5.12 25.6-25.6 51.2-46.080-51.2-10.24-102.4-20.48-148.48-35.84zM896 320c0-15.36 0-25.6-35.84-25.6-10.24 0-35.84 15.36-66.56 35.84 10.24 0 20.48 0 25.6 0 56.32 0 71.68-5.12 76.8-10.24z" />
<glyph unicode="&#xe941;" glyph-name="f-video" d="M783.36-12.8h-537.6c-107.52 0-194.56 87.040-194.56 189.44v537.6c0 107.52 87.040 194.56 194.56 194.56h537.6c102.4 0 189.44-87.040 189.44-194.56v-537.6c0-102.4-87.040-189.44-189.44-189.44zM245.76 826.88c-61.44 0-112.64-46.080-112.64-107.52v-537.6c0-61.44 51.2-112.64 112.64-112.64h537.6c61.44 0 112.64 51.2 112.64 112.64v532.48c0 61.44-51.2 112.64-112.64 112.64h-537.6zM409.6 253.44c-15.36 0-30.72 5.12-46.080 10.24-25.6 15.36-46.080 46.080-46.080 76.8v209.92c0 51.2 40.96 87.040 92.16 87.040 15.36 0 30.72-5.12 46.080-10.24l204.8-102.4c46.080-25.6 61.44-76.8 35.84-122.88-10.24-15.36-20.48-25.6-35.84-35.84l-204.8-102.4c-15.36-5.12-30.72-10.24-46.080-10.24v0zM409.6 560.64v0c-10.24 0-15.36-5.12-15.36-10.24v-204.8c0-5.12 5.12-15.36 15.36-15.36h5.12l204.8 102.4c5.12 0 5.12 5.12 5.12 10.24s0 10.24-5.12 10.24l-204.8 102.4c0 5.12-5.12 5.12-5.12 5.12v0z" />
<glyph unicode="&#xe942;" glyph-name="download" d="M972.8 432.64c0-117.76-87.040-209.92-199.68-220.16-15.36 0-35.84 10.24-35.84 30.72 0 15.36 10.24 35.84 30.72 35.84 81.92 10.24 143.36 76.8 143.36 158.72 0 97.28-87.040 168.96-179.2 158.72-15.36 0-25.6 5.12-35.84 15.36-35.84 76.8-117.76 128-204.8 128-117.76 0-220.16-92.16-230.4-209.92 0-15.36-15.36-30.72-30.72-30.72-61.44 0-112.64-51.2-112.64-112.64s51.2-112.64 112.64-112.64h25.6c15.36 0 30.72-15.36 30.72-30.72s-15.36-35.84-30.72-35.84h-30.72c-97.28 0-174.080 76.8-174.080 174.080 0 87.040 66.56 158.72 148.48 174.080 25.6 138.24 143.36 240.64 286.72 240.64 107.52 0 199.68-56.32 250.88-143.36 128 5.12 235.52-92.16 235.52-220.16zM593.92 253.44l-51.2-51.2v220.16c0 15.36-15.36 30.72-30.72 30.72s-30.72-15.36-30.72-30.72v-220.16l-51.2 51.2c-10.24 10.24-30.72 10.24-46.080 0-10.24-10.24-10.24-30.72 0-46.080l92.16-92.16c20.48-20.48 56.32-20.48 76.8 0l92.16 92.16c10.24 10.24 10.24 30.72 0 46.080-15.36 10.24-35.84 10.24-51.2 0z" />
<glyph unicode="&#xe943;" glyph-name="pright" d="M921.6 704h-819.2c-30.72 0-51.2 20.48-51.2 51.2s20.48 51.2 51.2 51.2h819.2c30.72 0 51.2-20.48 51.2-51.2s-20.48-51.2-51.2-51.2zM921.6 499.2h-512c-30.72 0-51.2-20.48-51.2-51.2s20.48-51.2 51.2-51.2h512c30.72 0 51.2 20.48 51.2 51.2s-20.48 51.2-51.2 51.2zM921.6 192h-716.8c-30.72 0-51.2-20.48-51.2-51.2s20.48-51.2 51.2-51.2h716.8c30.72 0 51.2 20.48 51.2 51.2s-20.48 51.2-51.2 51.2z" />
<glyph unicode="&#xe944;" glyph-name="export" d="M358.4 647.68l107.52 107.52v-440.32c0-25.6 20.48-46.080 46.080-46.080s46.080 20.48 46.080 46.080v440.32l107.52-107.52c20.48-20.48 46.080-20.48 66.56 0s20.48 46.080 0 66.56l-184.32 184.32c-5.12 5.12-10.24 10.24-15.36 10.24-10.24 0-25.6 0-40.96-5.12-5.12 0-10.24-5.12-15.36-10.24l-179.2-184.32c-20.48-20.48-20.48-46.080 0-66.56 15.36-15.36 46.080-15.36 61.44 5.12zM926.72 355.84c-25.6 0-46.080-20.48-46.080-46.080v-184.32c0-25.6-20.48-46.080-46.080-46.080h-645.12c-25.6 0-46.080 20.48-46.080 46.080v184.32c0 25.6-20.48 46.080-46.080 46.080s-46.080-15.36-46.080-46.080v-184.32c0-76.8 61.44-138.24 138.24-138.24h645.12c76.8 0 138.24 61.44 138.24 138.24v184.32c0 30.72-20.48 46.080-46.080 46.080z" />
<glyph unicode="&#xe945;" glyph-name="hashtag" d="M1007.265 616.912l16.338 91.421c0.271 1.448 0.427 3.114 0.427 4.817 0 15.139-12.272 27.411-27.411 27.411-0.010 0-0.021 0-0.031 0h-171.021l33.519 187.211c0.271 1.448 0.427 3.114 0.427 4.817 0 15.139-12.272 27.411-27.411 27.411-0.028 0-0.055 0-0.083 0h-92.857c-0.009 0-0.019 0-0.029 0-13.436 0-24.615-9.667-26.959-22.426l-0.026-0.168-35.158-196.845h-225.448l33.42 187.211c0.271 1.448 0.427 3.114 0.427 4.817 0 15.139-12.272 27.411-27.411 27.411-0.010 0-0.021 0-0.031 0h-92.859c-0.009 0-0.019 0-0.029 0-13.436 0-24.615-9.667-26.959-22.426l-0.026-0.168-35.158-196.845h-180.805c-0.009 0-0.019 0-0.029 0-13.436 0-24.615-9.667-26.959-22.426l-0.026-0.168-16.288-91.421c-0.271-1.448-0.427-3.114-0.427-4.817 0-15.139 12.272-27.411 27.411-27.411 0.010 0 0.021 0 0.031 0h170.971l-52.24-292.586h-180.805c-0.009 0-0.019 0-0.029 0-13.436 0-24.615-9.667-26.959-22.426l-0.026-0.168-16.288-91.47c-0.271-1.448-0.427-3.114-0.427-4.817 0-15.139 12.272-27.411 27.411-27.411 0.010 0 0.021 0 0.031 0h171.17l-33.42-187.161c-0.271-1.448-0.427-3.114-0.427-4.817 0-15.139 12.272-27.411 27.411-27.411 0.010 0 0.021 0 0.031 0h92.859c0.009 0 0.019 0 0.029 0 13.436 0 24.615 9.667 26.959 22.426l0.026 0.168 34.91 196.894h225.448l-33.42-187.161c-0.271-1.448-0.427-3.114-0.427-4.817 0-15.139 12.272-27.411 27.411-27.411 0.010 0 0.021 0 0.031 0h92.859c0.009 0 0.019 0 0.029 0 13.436 0 24.615 9.667 26.959 22.426l0.026 0.168 35.158 196.795h180.805c0.009 0 0.019 0 0.029 0 13.436 0 24.615 9.667 26.959 22.426l0.026 0.168 16.338 91.421c0.271 1.448 0.427 3.114 0.427 4.817 0 15.139-12.272 27.411-27.411 27.411-0.010 0-0.021 0-0.031 0h-171.021l52.29 292.486h180.756c0.009 0 0.019 0 0.029 0 13.436 0 24.615 9.667 26.959 22.426l0.026 0.168zM598.629 301.732h-225.448l52.24 292.536h225.448z" />
<glyph unicode="&#xe946;" glyph-name="pending" horiz-adv-x="768" d="M64.022 960c-34.625-0.942-62.334-29.235-62.334-64s27.709-63.058 62.247-63.998l0.087-0.002v-21.994c0.035-88.348 35.86-168.321 93.762-226.215v0l135.613-135.791-135.613-135.791c-57.919-57.888-93.759-137.861-93.807-226.205v-22.004c-34.625-0.942-62.334-29.235-62.334-64s27.709-63.058 62.247-63.998l0.087-0.002h640.045c34.625 0.942 62.334 29.235 62.334 64s-27.709 63.058-62.247 63.998l-0.087 0.002v21.994c-0.048 88.353-35.888 168.327-93.806 226.213l-0.002 0.002-135.613 135.791 135.791 135.791c57.919 57.888 93.759 137.861 93.807 226.205v22.004c0.503-0.014 1.095-0.022 1.688-0.022 35.359 0 64.022 28.664 64.022 64.022s-28.664 64.022-64.022 64.022c-0.594 0-1.185-0.008-1.775-0.024l0.087 0.002h-640.178zM192.022 810.006v21.994h384v-21.994c0-0.055 0-0.121 0-0.187 0-39.435-11.957-76.078-32.443-106.5l0.432 0.681h-320.022c-19.988 29.827-31.918 66.518-31.967 105.994v0.013zM223.989 192c7.481 11.148 15.451 20.886 24.244 29.81l-0.024-0.025 135.791 135.613 135.791-135.791c8.832-8.908 16.859-18.645 23.942-29.074l0.456-0.711h-320.2z" />
<glyph unicode="&#xe947;" glyph-name="resolved" d="M487.603 280.397c-10.149-10.106-24.146-16.354-39.603-16.354s-29.455 6.248-39.605 16.356l0.002-0.002-128.165 128c-10.135 10.135-16.404 24.137-16.404 39.603 0 30.932 25.075 56.008 56.008 56.008 15.466 0 29.468-6.269 39.603-16.404v0l88.397-88.397 216.397 216.397c10.135 10.135 24.137 16.404 39.603 16.404 30.932 0 56.008-25.075 56.008-56.008 0-15.466-6.269-29.468-16.404-39.603v0zM1024 448c0-282.77-229.23-512-512-512s-512 229.23-512 512c0 282.77 229.23 512 512 512v0c0.012 0 0.027 0 0.041 0 282.747 0 511.959-229.212 511.959-511.959 0-0.014 0-0.029 0-0.043v0.002zM512 864.021c-229.739 0-415.979-186.24-415.979-415.979s186.24-415.979 415.979-415.979c229.725 0 415.956 186.217 415.979 415.936v0.002c0 0.024 0 0.053 0 0.082 0 229.716-186.222 415.938-415.938 415.938-0.014 0-0.029 0-0.043 0h0.002z" />
<glyph unicode="&#xe948;" glyph-name="certificate" horiz-adv-x="768" d="M347.824 949.073c10.256 6.841 22.864 10.917 36.425 10.917s26.169-4.076 36.667-11.069l-0.243 0.152 35.564-23.378c10.302-6.829 22.951-10.895 36.55-10.895 1.284 0 2.559 0.036 3.825 0.108l-0.175-0.008 42.451 2.583c1.131 0.069 2.453 0.108 3.785 0.108 25.75 0 48.068-14.696 59.023-36.158l0.174-0.375 19.206-38.213c6.514-12.762 16.643-22.89 29.031-29.231l0.374-0.174 38.61-19.404c21.837-11.129 36.533-33.447 36.533-59.197 0-1.331-0.039-2.654-0.117-3.966l0.009 0.181-2.583-42.584c-0.069-1.134-0.109-2.46-0.109-3.794 0-13.552 4.071-26.154 11.056-36.649l-0.152 0.243 23.577-35.63c6.841-10.256 10.917-22.864 10.917-36.425s-4.076-26.169-11.069-36.667l0.152 0.243-23.577-35.829c-6.829-10.302-10.895-22.951-10.895-36.55 0-1.284 0.036-2.559 0.108-3.825l-0.008 0.175 2.583-42.584c0.069-1.131 0.108-2.453 0.108-3.785 0-25.75-14.696-48.068-36.158-59.023l-0.375-0.174-38.213-19.206c-12.762-6.514-22.89-16.643-29.231-29.031l-0.174-0.374-19.404-38.61c-11.129-21.837-33.447-36.533-59.197-36.533-1.331 0-2.654 0.039-3.966 0.117l0.181-0.009-42.584 2.583c-1.134 0.069-2.46 0.109-3.794 0.109-13.552 0-26.154-4.071-36.649-11.056l0.243 0.152-35.564-23.577c-10.256-6.841-22.864-10.917-36.425-10.917s-26.169 4.076-36.667 11.069l0.243-0.152-35.763 23.775c-10.302 6.829-22.951 10.895-36.55 10.895-1.284 0-2.559-0.036-3.825-0.108l0.175 0.008-42.584-2.583c-1.131-0.069-2.453-0.108-3.785-0.108-25.75 0-48.068 14.696-59.023 36.158l-0.174 0.375-19.206 38.213c-6.514 12.762-16.643 22.89-29.031 29.231l-0.374 0.174-38.61 19.404c-21.837 11.129-36.533 33.447-36.533 59.197 0 1.331 0.039 2.654 0.117 3.966l-0.009-0.181 2.583 42.584c0.069 1.134 0.109 2.46 0.109 3.794 0 13.552-4.071 26.154-11.056 36.649l0.152-0.243-23.378 35.696c-6.841 10.256-10.917 22.864-10.917 36.425s4.076 26.169 11.069 36.667l-0.152-0.243 23.378 35.564c6.829 10.302 10.895 22.951 10.895 36.55 0 1.284-0.036 2.559-0.108 3.825l0.008-0.175-2.583 42.584c-0.069 1.131-0.108 2.453-0.108 3.785 0 25.75 14.696 48.068 36.158 59.023l0.375 0.174 38.213 19.206c12.832 6.666 23.018 16.915 29.426 29.421l0.178 0.382 19.206 38.213c11.129 21.837 33.447 36.533 59.197 36.533 1.331 0 2.654-0.039 3.966-0.117l-0.181 0.009 42.584-2.583c1.144-0.070 2.48-0.111 3.826-0.111 13.511 0 26.077 4.046 36.553 10.992l-0.245-0.153zM544.054 576.083c0 88.368-71.636 160.004-160.004 160.004s-160.004-71.636-160.004-160.004c0-88.368 71.636-160.004 160.004-160.004 0.023 0 0.047 0 0.070 0h-0.004c88.339 0.038 159.938 71.66 159.938 160.004v0zM2.715 76.533l86.095 205.303c0.354-0.163 0.632-0.441 0.791-0.785l0.004-0.010 19.206-38.213c21.877-43.108 65.879-72.135 116.66-72.135 2.621 0 5.223 0.077 7.805 0.23l-0.356-0.017 42.584 2.583c0.062 0.007 0.134 0.011 0.207 0.011 0.449 0 0.861-0.154 1.188-0.412l-0.004 0.003 35.564-23.577c9.262-6.142 19.913-11.371 31.227-15.153l0.959-0.278-75.168-178.813c-4.962-11.582-16.264-19.548-29.426-19.548-11.184 0-21.025 5.752-26.726 14.459l-0.075 0.122-64.108 98.811-112.586-16.557c-1.344-0.196-2.895-0.308-4.473-0.308-10.305 0-19.495 4.774-25.479 12.231l-0.050 0.064c-4.179 5.338-6.702 12.148-6.702 19.547 0 4.494 0.93 8.77 2.609 12.647l-0.080-0.206zM498.688-44.264l-75.234 178.084c12.265 3.955 22.927 9.193 32.648 15.723l-0.461-0.292 35.564 23.577c0.399 0.237 0.876 0.383 1.387 0.397h0.004l42.584-2.583c2.178-0.13 4.724-0.204 7.288-0.204 50.752 0 94.731 28.993 116.28 71.32l0.342 0.74 19.206 38.213c0.163 0.354 0.441 0.632 0.785 0.791l0.010 0.004 86.095-205.303c1.551-3.653 2.452-7.902 2.452-12.362 0-7.413-2.491-14.244-6.681-19.703l0.057 0.077c-5.831-7.555-14.89-12.374-25.073-12.374-1.74 0-3.446 0.141-5.109 0.411l0.182-0.024-111.659 16.888-64.373-98.413c-5.775-8.829-15.616-14.581-26.801-14.581-13.162 0-24.464 7.966-29.346 19.34l-0.079 0.208z" />
<glyph unicode="&#xe949;" glyph-name="fee" horiz-adv-x="949" d="M10.548 953.847c-8.35-6.153-8.35-16.261-9.229-443.001-0.879-344.996 0-438.606 4.395-447.396 7.911-15.382 24.611-16.261 46.585-2.197 22.414 13.624 22.853 13.185 66.362-30.324 41.312-41.751 47.464-42.63 82.623-10.548 13.624 12.745 31.643 29.006 39.114 36.038l14.064 12.745 39.554-37.796c25.051-24.172 43.070-38.235 49.222-38.235s23.732 13.624 47.904 37.796l38.675 37.356 40.872-35.159c35.598-31.203 47.904-39.993 47.904-33.84 0 0.879-4.834 10.108-10.548 20.656s-13.624 29.445-17.579 41.312c-5.274 16.7-12.745 26.369-29.445 40.872-32.082 26.369-37.796 25.051-81.305-17.14l-36.477-36.038-39.114 36.038c-26.369 23.732-42.63 35.598-49.662 35.598s-24.172-12.745-49.662-35.598l-39.114-35.159-13.624 12.306c-7.471 7.032-25.93 23.732-40.872 37.796-28.567 26.369-37.356 29.445-53.178 18.019l-9.669-6.592v804.697h764.704l0.879-259.736 1.318-259.736 21.974-8.35c12.306-4.395 22.414-8.35 23.293-8.35 0.439 0 0.879 126.572 0.879 281.27 0 275.557 0 281.27-8.79 290.060s-14.503 8.79-421.027 8.79c-348.951 0-413.555-0.879-421.027-6.153zM171.399 707.296v-85.7h43.948v65.923h52.738v35.159h-52.738v35.159h57.133v35.159h-101.082v-85.7zM298.85 707.296v-85.7h101.082v39.554h-57.133v30.764h52.738v34.719l-25.051 1.318c-25.051 1.318-25.49 1.318-25.49 14.503s0 13.185 27.688 14.503l27.248 1.318v34.719h-101.082v-85.7zM430.695 707.296v-85.7h101.082v39.554h-57.133v30.764h52.738v34.719l-25.051 1.318c-25.051 1.318-25.49 1.318-25.49 14.503s0 13.185 27.688 14.503l27.248 1.318v34.719h-101.082v-85.7zM576.604 784.206c-17.14-10.548-24.611-27.248-21.095-47.904 3.076-18.898 12.745-29.006 45.267-46.146 26.369-14.064 31.203-22.414 18.019-30.764-7.471-4.395-38.235 0-57.133 8.35-7.032 2.637-7.911 0.439-7.911-16.7 0-18.458 0.879-20.216 13.624-24.611 19.337-6.592 54.057-6.153 71.197 1.318 19.777 8.35 29.885 21.095 32.082 40.872 3.076 23.732-9.229 40.872-38.675 54.936-27.248 13.185-35.159 21.095-29.885 29.445 3.516 6.153 32.522 5.274 48.783-1.318 5.274-2.197 8.79 0.879 14.064 13.624 6.592 16.7 6.592 16.7-4.834 21.974-19.777 8.79-66.802 7.032-83.502-3.076zM171.399 491.070v-23.293h501.013v43.948l-501.013 2.197v-22.853zM171.399 335.931v-21.974h186.342c172.718 0 187.221 0.439 192.494 7.911 3.076 3.955 13.185 14.064 22.414 21.974l16.7 14.064h-417.95v-21.974zM712.845 343.842c-38.235-4.395-79.107-24.611-110.311-54.057-122.616-116.903-61.088-319.945 105.916-349.83 83.942-14.942 173.157 28.567 213.15 103.718 18.458 35.598 23.732 58.012 23.732 100.203 0 54.057-15.821 94.489-50.541 133.603-47.025 52.299-109.432 75.152-181.947 66.362zM832.824 208.481l21.535-21.974-65.483-65.923c-36.038-36.038-68.56-65.923-72.515-65.923s-24.611 18.019-46.146 39.993l-39.114 39.554 44.827 44.827 21.535-18.019 21.095-18.458 43.948 43.948c24.172 24.172 44.827 43.948 46.146 43.948s12.306-9.669 24.172-21.974z" />
<glyph unicode="&#xe94a;" glyph-name="participant" horiz-adv-x="1280" d="M287.971 960c88.367 0 160.003-71.636 160.003-160.003s-71.636-160.003-160.003-160.003c-88.367 0-160.003 71.636-160.003 160.003v0c0 88.367 71.636 160.003 160.003 160.003v0zM1024 960c88.367 0 160.003-71.636 160.003-160.003s-71.636-160.003-160.003-160.003c-88.367 0-160.003 71.636-160.003 160.003v0c0 88.367 71.636 160.003 160.003 160.003v0zM0 362.48c0 0.025 0 0.054 0 0.083 0 117.884 95.564 213.447 213.447 213.447h85.313c0.007 0 0.015 0 0.023 0 32.341 0 63.010-7.156 90.51-19.972l-1.32 0.552c-2.379-12.996-3.739-27.951-3.739-43.224 0-0.53 0.002-1.060 0.005-1.589v0.082c0.023-76.266 33.379-144.736 86.29-191.638l0.267-0.232h-428.223c-23.446 0.094-42.433 19.051-42.573 42.477v0.013zM810.636 319.907h-1.411c53.239 47.027 86.641 115.454 86.641 191.682 0 0.095 0 0.191 0 0.286v-0.015c-0.060 15.785-1.446 31.202-4.053 46.2l0.235-1.635c25.967 12.262 56.408 19.421 88.521 19.421 0.243 0 0.486 0 0.729-0.001h85.359c117.819-0.047 213.317-95.546 213.364-213.36v-0.004c-0.047-23.494-19.080-42.526-42.569-42.573h-0.004zM448.14 511.86c0 0.049 0 0.108 0 0.166 0 106.059 85.978 192.036 192.036 192.036s192.036-85.978 192.036-192.036c0-106.059-85.978-192.036-192.036-192.036-0.058 0-0.117 0-0.175 0h0.009c-105.929 0.094-191.776 85.941-191.87 191.861v0.009zM256.021-10.97c0 0.099 0 0.215 0 0.332 0 147.263 119.38 266.643 266.643 266.643 0.059 0 0.117 0 0.176 0h234.6c147.227-0.047 266.561-119.409 266.561-266.643 0-0.117 0-0.233 0-0.35v0.018c0-29.471-23.891-53.362-53.362-53.362v0h-661.256c-29.471 0-53.362 23.891-53.362 53.362v0z" />
<glyph unicode="&#xe94b;" glyph-name="setting" d="M512 601.6c-87.040 0-153.6-66.56-153.6-153.6s66.56-153.6 153.6-153.6 153.6 66.56 153.6 153.6-66.56 153.6-153.6 153.6zM512 366.080c-40.96 0-76.8 35.84-76.8 76.8s35.84 81.92 76.8 81.92 76.8-35.84 76.8-76.8-35.84-81.92-76.8-81.92zM870.4 371.2v0l-15.36 10.24c5.12 40.96 5.12 87.040 0 128l15.36 10.24c56.32 30.72 71.68 102.4 40.96 158.72s-102.4 71.68-158.72 40.96l-15.36-10.24c-30.72 25.6-71.68 51.2-107.52 61.44v25.6c-5.12 61.44-56.32 112.64-117.76 112.64s-112.64-51.2-112.64-112.64v-20.48c-40.96-15.36-81.92-35.84-112.64-66.56l-15.36 10.24c-56.32 30.72-128 15.36-158.72-40.96s-10.24-128 40.96-158.72l15.36-10.24c-5.12-40.96-5.12-87.040 0-128l-15.36-10.24c-56.32-30.72-71.68-102.4-40.96-158.72s102.4-71.68 158.72-40.96l15.36 10.24c30.72-25.6 71.68-51.2 107.52-61.44v-20.48c0-61.44 51.2-112.64 112.64-112.64s112.64 51.2 112.64 112.64v20.48c40.96 15.36 76.8 35.84 107.52 61.44l15.36-10.24c56.32-30.72 128-15.36 158.72 40.96 40.96 56.32 20.48 128-30.72 158.72zM773.12 519.68v0c15.36-46.080 15.36-97.28 0-143.36-5.12-15.36 5.12-35.84 15.36-40.96l40.96-25.6c20.48-10.24 25.6-35.84 15.36-51.2s-35.84-25.6-51.2-15.36l-40.96 25.6c-15.36 10.24-35.84 5.12-46.080-5.12-35.84-35.84-76.8-61.44-122.88-71.68-15.36-5.12-30.72-20.48-30.72-35.84v-46.080c0-20.48-15.36-40.96-40.96-40.96-20.48 0-35.84 15.36-35.84 40.96v46.080c0 15.36-10.24 30.72-30.72 35.84-46.080 10.24-92.16 35.84-122.88 71.68-10.24 10.24-30.72 15.36-46.080 5.12l-46.080-25.6c-20.48-10.24-40.96-5.12-51.2 15.36s-5.12 40.96 15.36 51.2v0l40.96 25.6c15.36 10.24 20.48 25.6 15.36 40.96-15.36 46.080-15.36 97.28 0 143.36 5.12 15.36 0 35.84-15.36 46.080l-40.96 20.48c-20.48 10.24-25.6 35.84-15.36 51.2 10.24 20.48 35.84 25.6 51.2 15.36l40.96-25.6c15.36-5.12 35.84-5.12 51.2 10.24 35.84 35.84 76.8 61.44 122.88 71.68 15.36 5.12 30.72 20.48 30.72 35.84v51.2c0 20.48 15.36 35.84 35.84 35.84s35.84-15.36 35.84-35.84v-46.080c0-15.36 10.24-30.72 30.72-35.84 46.080-10.24 92.16-35.84 122.88-71.68 10.24-10.24 30.72-15.36 46.080-5.12l46.080 15.36c20.48 10.24 40.96 5.12 51.2-15.36s5.12-40.96-15.36-51.2v0l-40.96-25.6c-15.36-5.12-20.48-25.6-15.36-40.96z" />
<glyph unicode="&#xe94c;" glyph-name="athletics" horiz-adv-x="832" d="M639.925 864.004c0 53.017-42.979 95.996-95.996 95.996s-95.996-42.979-95.996-95.996c0-53.017 42.979-95.996 95.996-95.996v0c53.017 0 95.996 42.979 95.996 95.996v0zM251.391 609.027c19.193 19.147 45.683 30.987 74.939 30.987 0.032 0 0.064 0 0.097 0h-0.005c0.052 0 0.113 0 0.175 0 3.89 0 7.73-0.217 11.507-0.64l-0.464 0.042-62.48-187.348c-4.149-12.062-6.544-25.961-6.544-40.419 0-45.563 23.79-85.57 59.627-108.276l0.524-0.31 172.36-107.765-50.572-177.785c-1.566-5.275-2.468-11.337-2.468-17.608 0-35.375 28.677-64.051 64.051-64.051 29.103 0 53.672 19.41 61.47 45.99l0.114 0.453 57.377 200.773c2.354 7.917 3.709 17.014 3.709 26.427 0 34.15-17.833 64.136-44.694 81.152l-0.393 0.232-113.604 70.985 61.79 164.958 10.206-24.597c29.77-69.989 97.94-118.177 177.368-118.202h42.3c35.345 0 63.997 28.652 63.997 63.997s-28.652 63.997-63.997 63.997h-42.573c-26.442 0.002-49.13 16.074-58.828 38.982l-0.158 0.419-12.597 29.976c-29.671 70.031-87.603 123.151-159.101 145.707l-1.812 0.493-97.329 30.114c-20.587 6.585-44.268 10.381-68.836 10.381-64.611 0-123.090-26.252-165.353-68.67l-0.007-0.007-46.389-45.975c-11.59-11.59-18.758-27.6-18.758-45.285 0-35.37 28.673-64.043 64.043-64.043 17.685 0 33.696 7.168 45.285 18.758l45.975 45.975zM182.429 256.078h-118.431c-35.345 0-63.997-28.652-63.997-63.997s28.652-63.997 63.997-63.997h139.166c0 0 0 0 0 0 38.926 0 72.448 23.135 87.567 56.406l0.245 0.603 22.987 51.814-18.988 11.999c-33.88 21.313-60.115 52.051-75.346 88.529l-0.467 1.26z" />
<glyph unicode="&#xe94d;" glyph-name="dance" horiz-adv-x="896" d="M638.521 216.311c97.575 63.638 161.17 172.267 161.17 295.75 0 194.37-157.568 351.938-351.938 351.938s-351.938-157.568-351.938-351.938c0-123.483 63.595-232.112 159.819-294.922l1.351-0.827c2.404-34.593 8-75.984 14.386-114.183l0.413-1.991c-161.242 70.169-271.935 228.102-271.935 411.889 0 247.37 200.533 447.904 447.904 447.904s447.904-200.533 447.904-447.904c0-183.787-110.693-341.72-269.047-410.767l-2.888-1.122 0.413 2.216c6.197 38.386 11.982 79.59 14.386 113.995zM633.939 292.483c-3.477 12.309-8.258 23.062-14.33 32.937l0.32-0.56c-11.127 18.282-25.834 33.312-43.252 44.483l-0.543 0.326c39.112 35.285 63.589 86.147 63.589 142.726 0 106.022-85.948 191.969-191.969 191.969s-191.969-85.948-191.969-191.969c0-56.579 24.477-107.441 63.419-142.575l0.17-0.151c-17.961-11.497-32.668-26.527-43.455-44.21l-0.34-0.599c-5.752-9.314-10.533-20.068-13.787-31.466l-0.222-0.911c-62.429 53.151-101.769 131.81-101.769 219.656 0 159.022 128.913 287.935 287.935 287.935s287.935-128.913 287.935-287.935c0-87.847-39.34-166.505-101.363-219.319l-0.406-0.337zM447.904 336.127c65.805 0 127.967-17.203 127.967-87.59-6.211-97.472-20.92-188.273-43.541-275.894l2.225 10.157c-10.216-38.011-48.828-46.8-86.801-46.8s-76.397 8.789-86.801 46.8c-20.574 77.533-35.291 168.282-41.111 261.444l-0.205 4.105c0 70.2 62.199 87.59 127.967 87.59zM447.904 624.063c61.837 0 111.967-50.129 111.967-111.967s-50.129-111.967-111.967-111.967c-61.837 0-111.967 50.129-111.967 111.967v0c0 61.837 50.129 111.967 111.967 111.967v0z" />
<glyph unicode="&#xe94e;" glyph-name="debates" horiz-adv-x="1280" d="M287.849 960c0.041 0 0.090 0 0.139 0 88.359 0 159.988-71.629 159.988-159.988s-71.629-159.988-159.988-159.988c-88.359 0-159.988 71.629-159.988 159.988v0c0 88.31 71.55 159.909 159.841 159.988h0.008zM1024 960c88.359 0 159.988-71.629 159.988-159.988s-71.629-159.988-159.988-159.988c-88.359 0-159.988 71.629-159.988 159.988v0c0 88.359 71.629 159.988 159.988 159.988v0zM0 362.62c0 117.949 95.617 213.565 213.565 213.565v0h85.24c0.007 0 0.014 0 0.022 0 32.331 0 62.991-7.152 90.486-19.959l-1.321 0.552c-2.423-13.115-3.809-28.206-3.809-43.621 0-0.35 0.001-0.7 0.002-1.049v0.054c0-0.003 0-0.006 0-0.010 0-76.306 33.373-144.817 86.319-191.734l0.268-0.233h-428.152c-23.442 0.078-42.437 19.008-42.62 42.417v0.017zM810.574 320h-1.393c53.208 47.023 86.587 115.429 86.587 191.632 0 0.121 0 0.243 0 0.364v-0.019c-0.054 15.798-1.436 31.234-4.042 46.251l0.235-1.634c25.958 12.254 56.388 19.408 88.488 19.408 0.246 0 0.491 0 0.737-0.001h85.342c117.949 0 213.565-95.617 213.565-213.565v0c0-23.539-19.082-42.62-42.62-42.62v0zM447.977 512.023c0 106.026 85.951 191.977 191.977 191.977s191.977-85.951 191.977-191.977c0-106.026-85.951-191.977-191.977-191.977v0c-106.026 0-191.977 85.951-191.977 191.977v0zM256-10.609c0.027 147.22 119.365 266.559 266.583 266.585h234.785c147.22-0.027 266.559-119.365 266.585-266.583v-0.003c0-29.487-23.904-53.391-53.391-53.391v0h-661.171c-29.487 0-53.391 23.904-53.391 53.391v0z" />
<glyph unicode="&#xe94f;" glyph-name="weeklytest" horiz-adv-x="878" d="M731.404 850.255c0 40.399 32.75 73.149 73.149 73.149s73.149-32.75 73.149-73.149v-219.404c0-20.188-16.365-36.553-36.553-36.553v0h-109.745zM731.404 960c-40.375 0-73.106-32.731-73.106-73.106v0-914.255c0-20.188-16.365-36.553-36.553-36.553v0h-585.106c-20.188 0-36.553 16.365-36.553 36.553v0 877.616c0 0.026 0 0.056 0 0.086 0 60.563 49.096 109.659 109.659 109.659v0zM376.331 678.033l36.553-36.553c6.622-6.661 15.792-10.784 25.924-10.784s19.302 4.123 25.922 10.782l73.108 73.108c5.756 6.455 9.274 15.015 9.274 24.396 0 20.283-16.443 36.726-36.726 36.726-9.382 0-17.941-3.518-24.433-9.306l0.036 0.032-47.182-47.527-10.629 10.975c-6.455 5.756-15.015 9.274-24.396 9.274-20.283 0-36.726-16.443-36.726-36.726 0-9.382 3.518-17.941 9.306-24.433l-0.032 0.036zM292.596 192.043c0 20.188-16.365 36.553-36.553 36.553v0h-109.745c-20.188 0-36.553-16.365-36.553-36.553s16.365-36.553 36.553-36.553h109.745c20.188 0 36.553 16.365 36.553 36.553v0zM292.596 448c0 20.188-16.365 36.553-36.553 36.553v0h-109.745c-20.188 0-36.553-16.365-36.553-36.553s16.365-36.553 36.553-36.553h109.745c20.188 0 36.553 16.365 36.553 36.553v0zM292.596 703.957c0 20.188-16.365 36.553-36.553 36.553v0h-109.745c-20.188 0-36.553-16.365-36.553-36.553s16.365-36.553 36.553-36.553h109.745c20.188 0 36.553 16.365 36.553 36.553v0zM538.010 254.607c-6.622 6.661-15.792 10.784-25.924 10.784s-19.302-4.123-25.922-10.782l-47.183-47.529-10.629 10.975c-6.455 5.756-15.015 9.274-24.396 9.274-20.283 0-36.726-16.443-36.726-36.726 0-9.382 3.518-17.941 9.306-24.433l-0.032 0.036 36.553-36.553c6.622-6.661 15.792-10.784 25.924-10.784s19.302 4.123 25.922 10.782l73.108 73.108c6.661 6.622 10.784 15.792 10.784 25.924s-4.123 19.302-10.782 25.922l-0.002 0.002zM527.036 448.086l25.924 25.924c6.635 6.635 10.738 15.8 10.738 25.924 0 20.248-16.414 36.662-36.662 36.662-10.124 0-19.29-4.104-25.924-10.738l-25.924-25.924-25.924 25.924c-6.635 6.635-15.8 10.738-25.924 10.738-20.248 0-36.662-16.414-36.662-36.662 0-10.124 4.104-19.29 10.738-25.924l25.924-25.924-25.924-25.924c-6.635-6.635-10.738-15.8-10.738-25.924 0-20.248 16.414-36.662 36.662-36.662 10.124 0 19.29 4.104 25.924 10.738l25.924 25.924 25.924-25.924c6.635-6.635 15.8-10.738 25.924-10.738 20.248 0 36.662 16.414 36.662 36.662 0 10.124-4.104 19.29-10.738 25.924v0z" />
<glyph unicode="&#xe950;" glyph-name="workingday" horiz-adv-x="1446" d="M48.863 428.038v-628.856c0.082-20.444 16.674-36.985 37.129-36.985 0.076 0 0.153 0 0.229 0.001h186.404v739.81h-149.179c-0.086 0-0.188 0.001-0.29 0.001-40.917 0-74.109-33.078-74.293-73.952v-0.018zM887.953 539.003h-55.947v92.449c-0.041 10.222-8.337 18.492-18.564 18.492-0.030 0-0.059 0-0.089 0h-37.341c-0.007 0-0.016 0-0.024 0-10.227 0-18.523-8.27-18.564-18.488v-147.942c0.041-10.222 8.337-18.492 18.564-18.492 0.030 0 0.059 0 0.089 0h111.876c0.029 0 0.063 0 0.097 0 10.228 0 18.523 8.271 18.564 18.489v36.988c-0.034 10.227-8.333 18.505-18.564 18.505-0.034 0-0.068 0-0.102 0h0.005zM1208.995 686.869l-372.905 246.591c-11.645 7.779-25.966 12.414-41.37 12.414s-29.724-4.635-41.644-12.586l0.274 0.172-372.929-246.591c-20.098-13.38-33.173-35.927-33.214-61.53v-863.105h298.333v332.896c0.082 20.444 16.674 36.985 37.129 36.985 0.076 0 0.153 0 0.229-0.001h223.714c0.064 0 0.141 0.001 0.217 0.001 20.455 0 37.047-16.541 37.129-36.977v-332.904h298.273v863.063c-0.036 25.627-13.122 48.189-32.967 61.403l-0.271 0.17zM794.72 354.057c-101.488 0.86-183.429 83.331-183.429 184.94 0 102.143 82.803 184.946 184.946 184.946 102.141 0 184.943-82.8 184.946-184.94v0c-0.437-102.237-83.417-184.948-185.716-184.948-0.263 0-0.526 0.001-0.789 0.002h0.041zM1465.995 502.019h-149.179v-739.786h186.464c0.064 0 0.141-0.001 0.217-0.001 20.455 0 37.047 16.541 37.129 36.977v628.864c-0.205 40.876-33.389 73.934-74.293 73.934-0.123 0-0.246 0-0.369-0.001h0.019z" />
</font>
</defs>
</svg>
